<?xml version="1.0" encoding="UTF-8"?>
<!DOCTYPE svg PUBLIC "-//W3C//DTD SVG 1.1//EN" "http://www.w3.org/Graphics/SVG/1.1/DTD/svg11.dtd">
<!-- Creator: CorelDRAW 2021 (64-Bit) -->
<svg xmlns="http://www.w3.org/2000/svg" xml:space="preserve" width="79px" height="71px" version="1.1" style="shape-rendering:geometricPrecision; text-rendering:geometricPrecision; image-rendering:optimizeQuality; fill-rule:evenodd; clip-rule:evenodd"
viewBox="0 0 0.031 0.028"
 xmlns:xlink="http://www.w3.org/1999/xlink"
 xmlns:xodm="http://www.corel.com/coreldraw/odm/2003">
 <defs>
  <style type="text/css">
   <![CDATA[
    .fil0 {fill:#125490;fill-rule:nonzero}
   ]]>
  </style>
 </defs>
 <g id="Слой_x0020_1">
  <metadata id="CorelCorpID_0Corel-Layer"/>
  <polygon class="fil0" points="0.017,0.006 0.028,0.006 0.028,0.009 0.023,0.014 0.028,0.019 0.028,0.022 0.017,0.022 0.017,0.019 0.023,0.019 0.019,0.014 0.023,0.009 0.017,0.009 "/>
  <polygon class="fil0" points="0.004,0.006 0.015,0.006 0.015,0.009 0.011,0.009 0.011,0.009 0.007,0.009 0.007,0.019 0.011,0.019 0.011,0.019 0.015,0.019 0.015,0.022 0.004,0.022 "/>
  <path class="fil0" d="M0 0.028l0 -0.004c0.004,0 0.02,0 0.031,0l0 0.004 -0.031 0z"/>
  <path class="fil0" d="M0 0l0 0.004c0.01,0 0.024,0 0.031,0l0 -0.004 -0.031 0z"/>
 </g>
</svg>
