<?xml version="1.0" encoding="UTF-8"?>
<!DOCTYPE svg PUBLIC "-//W3C//DTD SVG 1.1//EN" "http://www.w3.org/Graphics/SVG/1.1/DTD/svg11.dtd">
<!-- Creator: CorelDRAW 2021 (64-Bit) -->
<svg xmlns="http://www.w3.org/2000/svg" xml:space="preserve" width="200px" height="90px" version="1.1" style="shape-rendering:geometricPrecision; text-rendering:geometricPrecision; image-rendering:optimizeQuality; fill-rule:evenodd; clip-rule:evenodd"
viewBox="0 0 0.202 0.091"
 xmlns:xlink="http://www.w3.org/1999/xlink"
 xmlns:xodm="http://www.corel.com/coreldraw/odm/2003">
 <defs>
  <style type="text/css">
   <![CDATA[
    .fil0 {fill:#125490;fill-rule:nonzero}
   ]]>
  </style>
 </defs>
 <g id="Слой_x0020_1">
  <metadata id="CorelCorpID_0Corel-Layer"/>
  <path class="fil0" d="M0 0l0 0.012c0.064,0 0.157,0 0.202,0l0 -0.012 -0.202 0z"/>
  <path class="fil0" d="M0 0.091l0 -0.012c0.027,0 0.131,0 0.202,0l0 0.012 -0.202 0z"/>
  <polygon class="fil0" points="0.155,0.018 0.19,0.018 0.19,0.03 0.177,0.045 0.19,0.061 0.19,0.073 0.155,0.073 0.155,0.061 0.176,0.061 0.163,0.045 0.176,0.03 0.155,0.03 "/>
  <path class="fil0" d="M0.127 0.03l0 0.031 0.012 0 0 -0.031 -0.012 0zm-0.011 -0.012l0.034 0 0 0.055 -0.034 0 0 -0.022 -0.008 0 0 0.022 -0.011 0 0 -0.055 0.011 0 0 0.021 0.008 0 0 -0.021z"/>
  <path class="fil0" d="M0.065 0.03l0 0.031 0.014 0 0 -0.031 -0.014 0zm-0.011 -0.012l0.036 0 0 0.055 -0.036 0 0 -0.055z"/>
  <path class="fil0" d="M0.012 0.018l0.036 0 0 0.012c-0.008,0 -0.016,0 -0.025,0l0 0.031 0.025 0 0 0.012 -0.036 0 0 -0.055z"/>
 </g>
</svg>
