<?xml version="1.0" encoding="UTF-8"?>
<!DOCTYPE svg PUBLIC "-//W3C//DTD SVG 1.1//EN" "http://www.w3.org/Graphics/SVG/1.1/DTD/svg11.dtd">
<!-- Creator: CorelDRAW 2021 (64-Bit) -->
<svg xmlns="http://www.w3.org/2000/svg" xml:space="preserve" width="30mm" height="17.5841mm" version="1.1" style="shape-rendering:geometricPrecision; text-rendering:geometricPrecision; image-rendering:optimizeQuality; fill-rule:evenodd; clip-rule:evenodd"
viewBox="0 0 6.1 3.58"
 xmlns:xlink="http://www.w3.org/1999/xlink"
 xmlns:xodm="http://www.corel.com/coreldraw/odm/2003">
 <defs>
  <style type="text/css">
   <![CDATA[
    .str0 {stroke:#003399;stroke-width:0.21;stroke-miterlimit:22.9256}
    .fil1 {fill:none}
    .fil0 {fill:#003399;fill-rule:nonzero}
    .fil2 {fill:#003399;fill-rule:nonzero}
   ]]>
  </style>
 </defs>
 <g id="Слой_x0020_1">
  <metadata id="CorelCorpID_0Corel-Layer"/>
  <g id="_1412855785632">
   <path class="fil0" d="M1.1 1.05l-0.46 0 0 -0.45c0,-0.04 -0.02,-0.06 -0.07,-0.06 -0.05,0 -0.07,0.02 -0.07,0.06l0 1.57c0,0.04 0.02,0.06 0.07,0.06 0.05,0 0.07,-0.02 0.07,-0.06l0 -0.56 0.46 0 0 0.58c0,0.11 -0.05,0.19 -0.16,0.26 -0.11,0.07 -0.23,0.1 -0.36,0.1 -0.39,0 -0.58,-0.14 -0.58,-0.41l0 -1.46c0,-0.29 0.19,-0.44 0.58,-0.44 0.35,0 0.52,0.13 0.52,0.4l0 0.41z"/>
   <path id="_1" class="fil0" d="M1.2 2.14l0 -1.46c0,-0.29 0.19,-0.44 0.57,-0.44 0.38,0 0.57,0.15 0.57,0.44l0 1.46c0,0.13 -0.05,0.23 -0.16,0.31 -0.1,0.07 -0.24,0.11 -0.41,0.11 -0.38,0 -0.57,-0.14 -0.57,-0.41zm0.65 0.02l0 -1.55c0,-0.05 -0.03,-0.07 -0.08,-0.07 -0.06,0 -0.08,0.02 -0.08,0.07l0 1.55c0,0.05 0.03,0.07 0.08,0.07 0.05,0 0.08,-0.02 0.08,-0.07z"/>
   <path id="_2" class="fil0" d="M3.13 1.47l-0.18 0 0 1.06 -0.5 0 0 -2.28 0.5 0 0 0.89 0.18 0c0,-0.32 0.01,-0.52 0.02,-0.61 0.01,-0.09 0.06,-0.16 0.14,-0.22 0.08,-0.06 0.22,-0.09 0.41,-0.09 0.38,0 0.57,0.15 0.57,0.44l0 1.47c0,0.28 -0.19,0.41 -0.57,0.41 -0.38,0 -0.57,-0.14 -0.57,-0.41l0 -0.68zm0.65 0.7l0 -1.56c0,-0.05 -0.03,-0.07 -0.08,-0.07 -0.06,0 -0.09,0.02 -0.09,0.07l0 1.56c0,0.05 0.03,0.07 0.09,0.07 0.05,0 0.08,-0.02 0.08,-0.07z"/>
   <path id="_3" class="fil0" d="M4.39 1.58l0.46 0 0 0.54c0,0.06 0.03,0.08 0.09,0.08 0.06,0 0.09,-0.03 0.09,-0.08l0 -0.53c0,-0.06 -0.02,-0.1 -0.05,-0.12 -0.03,-0.02 -0.09,-0.03 -0.17,-0.03l0 -0.26c0.14,0 0.21,-0.04 0.21,-0.13l0 -0.41c0,-0.05 -0.03,-0.07 -0.09,-0.07 -0.06,0 -0.09,0.02 -0.09,0.07l0 0.42 -0.44 0 0 -0.42c0,-0.27 0.19,-0.4 0.56,-0.4 0.15,0 0.28,0.03 0.39,0.1 0.11,0.06 0.16,0.17 0.16,0.31l0 0.31c0,0.19 -0.09,0.31 -0.26,0.37 0.18,0.05 0.27,0.19 0.27,0.42l0 0.34c0,0.32 -0.19,0.48 -0.56,0.48 -0.38,0 -0.57,-0.14 -0.57,-0.43l0 -0.54z"/>
   <line class="fil1 str0" x1="6" y1="0" x2="6" y2= "3.58" />
   <path class="fil2" d="M0.94 2.92l0.02 0c0.02,0 0.03,-0 0.04,-0.01 0.01,-0.01 0.01,-0.02 0.01,-0.03 0,-0.01 -0,-0.02 -0.01,-0.03 -0.01,-0.01 -0.02,-0.01 -0.03,-0.01l-0.03 0 0 0.08zm0.13 -0.04c0,0.03 -0.01,0.05 -0.03,0.07 -0.02,0.02 -0.04,0.02 -0.08,0.02l-0.02 0 0 0.09 -0.06 0 0 -0.26 0.08 0c0.03,0 0.06,0.01 0.07,0.02 0.02,0.01 0.03,0.03 0.03,0.06z"/>
   <polygon id="_1_0" class="fil2" points="1.26,3.06 1.11,3.06 1.11,2.79 1.26,2.79 1.26,2.84 1.17,2.84 1.17,2.9 1.26,2.9 1.26,2.94 1.17,2.94 1.17,3.01 1.26,3.01 "/>
   <polygon id="_2_1" class="fil2" points="1.54,3.06 1.47,3.06 1.38,2.92 1.38,3.06 1.32,3.06 1.32,2.79 1.38,2.79 1.38,2.92 1.47,2.79 1.53,2.79 1.43,2.92 "/>
   <path id="_3_2" class="fil2" d="M1.78 3.06l-0.06 0 0 -0.22 -0.06 0 -0 0.02c-0.01,0.06 -0.01,0.11 -0.02,0.13 -0.01,0.02 -0.01,0.04 -0.03,0.05 -0.01,0.01 -0.03,0.02 -0.04,0.01 -0.01,0 -0.02,-0 -0.03,-0l0 -0.05c0.01,0 0.01,0 0.02,0 0.01,0 0.01,-0 0.02,-0.01 0,-0.01 0.01,-0.02 0.01,-0.03 0,-0.02 0.01,-0.04 0.01,-0.08 0.01,-0.04 0.01,-0.07 0.01,-0.1l0.17 0 0 0.26z"/>
   <path id="_4" class="fil2" d="M2.01 3.06l-0.02 -0.06 -0.1 0 -0.02 0.06 -0.06 0 0.09 -0.27 0.07 0 0.09 0.27 -0.06 0zm-0.03 -0.11c-0.02,-0.06 -0.03,-0.09 -0.03,-0.1 -0,-0.01 -0,-0.01 -0,-0.02 -0,0.02 -0.02,0.05 -0.03,0.11l0.07 0z"/>
   <path id="_5" class="fil2" d="M2.21 3.06l-0.06 -0.21 -0 0c0,0.04 0,0.07 0,0.08l0 0.12 -0.05 0 0 -0.26 0.08 0 0.06 0.2 0 0 0.07 -0.2 0.08 0 0 0.26 -0.05 0 0 -0.13c0,-0.01 0,-0.01 0,-0.02 0,-0.01 0,-0.03 0,-0.06l-0 0 -0.07 0.21 -0.05 0z"/>
   <polygon id="_6" class="fil2" points="2.67,3.06 2.61,3.06 2.61,2.94 2.51,2.94 2.51,3.06 2.45,3.06 2.45,2.79 2.51,2.79 2.51,2.9 2.61,2.9 2.61,2.79 2.67,2.79 "/>
   <path id="_7" class="fil2" d="M2.9 3.06l-0.02 -0.06 -0.1 0 -0.02 0.06 -0.06 0 0.09 -0.27 0.07 0 0.09 0.27 -0.06 0zm-0.03 -0.11c-0.02,-0.06 -0.03,-0.09 -0.03,-0.1 -0,-0.01 -0,-0.01 -0,-0.02 -0,0.02 -0.02,0.05 -0.03,0.11l0.07 0z"/>
   <path id="_8" class="fil2" d="M3.08 2.96l-0.06 0.1 -0.06 0 0.08 -0.12c-0.01,-0.01 -0.03,-0.02 -0.03,-0.03 -0.01,-0.01 -0.01,-0.03 -0.01,-0.04 0,-0.02 0.01,-0.04 0.03,-0.06 0.02,-0.01 0.04,-0.02 0.07,-0.02l0.09 0 0 0.26 -0.06 0 0 -0.1 -0.03 0zm0.03 -0.12l-0.03 0c-0.01,0 -0.03,0 -0.03,0.01 -0.01,0.01 -0.01,0.01 -0.01,0.03 0,0.01 0,0.02 0.01,0.03 0.01,0.01 0.02,0.01 0.04,0.01l0.03 0 0 -0.07z"/>
   <polygon id="_9" class="fil2" points="3.55,3.06 3.48,3.06 3.39,2.92 3.39,3.06 3.33,3.06 3.33,2.79 3.39,2.79 3.39,2.92 3.48,2.79 3.54,2.79 3.45,2.92 "/>
   <path id="_10" class="fil2" d="M3.82 2.93c0,0.04 -0.01,0.08 -0.03,0.1 -0.02,0.02 -0.05,0.04 -0.09,0.04 -0.04,0 -0.07,-0.01 -0.09,-0.04 -0.02,-0.02 -0.03,-0.06 -0.03,-0.1 0,-0.04 0.01,-0.08 0.03,-0.1 0.02,-0.02 0.05,-0.03 0.09,-0.03 0.04,0 0.07,0.01 0.09,0.04 0.02,0.02 0.03,0.06 0.03,0.1zm-0.19 0c0,0.03 0.01,0.05 0.02,0.07 0.01,0.01 0.03,0.02 0.05,0.02 0.04,0 0.07,-0.03 0.07,-0.09 0,-0.06 -0.02,-0.09 -0.07,-0.09 -0.02,0 -0.04,0.01 -0.05,0.02 -0.01,0.02 -0.02,0.04 -0.02,0.07z"/>
   <path id="_11" class="fil2" d="M3.99 3.06l-0.06 -0.21 -0 0c0,0.04 0,0.07 0,0.08l0 0.12 -0.05 0 0 -0.26 0.08 0 0.06 0.2 0 0 0.07 -0.2 0.08 0 0 0.26 -0.05 0 0 -0.13c0,-0.01 0,-0.01 0,-0.02 0,-0.01 0,-0.03 0,-0.06l-0 0 -0.07 0.21 -0.05 0z"/>
   <polygon id="_12" class="fil2" points="4.43,3.06 4.38,3.06 4.38,2.84 4.28,2.84 4.28,3.06 4.23,3.06 4.23,2.79 4.43,2.79 "/>
   <path id="_13" class="fil2" d="M4.66 3.06l-0.02 -0.06 -0.1 0 -0.02 0.06 -0.06 0 0.09 -0.27 0.07 0 0.09 0.27 -0.06 0zm-0.03 -0.11c-0.02,-0.06 -0.03,-0.09 -0.03,-0.1 -0,-0.01 -0,-0.01 -0,-0.02 -0,0.02 -0.02,0.05 -0.03,0.11l0.07 0z"/>
   <polygon id="_14" class="fil2" points="4.97,3.06 4.92,3.06 4.92,2.94 4.81,2.94 4.81,3.06 4.76,3.06 4.76,2.79 4.81,2.79 4.81,2.9 4.92,2.9 4.92,2.79 4.97,2.79 "/>
   <path id="_15" class="fil2" d="M5.04 2.79l0.05 0 0 0.13 -0 0.03 -0 0.04 0 0 0.12 -0.2 0.07 0 0 0.26 -0.05 0 0 -0.13c0,-0.02 0,-0.04 0,-0.08l-0 0 -0.12 0.2 -0.07 0 0 -0.26z"/>
   <path id="_16" class="fil2" d="M5.44 2.96l-0.06 0.1 -0.06 0 0.08 -0.12c-0.01,-0.01 -0.03,-0.02 -0.03,-0.03 -0.01,-0.01 -0.01,-0.03 -0.01,-0.04 0,-0.02 0.01,-0.04 0.03,-0.06 0.02,-0.01 0.04,-0.02 0.07,-0.02l0.09 0 0 0.26 -0.06 0 0 -0.1 -0.03 0zm0.03 -0.12l-0.03 0c-0.01,0 -0.03,0 -0.03,0.01 -0.01,0.01 -0.01,0.01 -0.01,0.03 0,0.01 0,0.02 0.01,0.03 0.01,0.01 0.02,0.01 0.04,0.01l0.03 0 0 -0.07z"/>
  </g>
 </g>
</svg>
