<?xml version="1.0" encoding="UTF-8"?>
<!DOCTYPE svg PUBLIC "-//W3C//DTD SVG 1.1//EN" "http://www.w3.org/Graphics/SVG/1.1/DTD/svg11.dtd">
<!-- Creator: CorelDRAW 2021 (64-Bit) -->
<svg xmlns="http://www.w3.org/2000/svg" xml:space="preserve" width="160px" height="104px" version="1.1" style="shape-rendering:geometricPrecision; text-rendering:geometricPrecision; image-rendering:optimizeQuality; fill-rule:evenodd; clip-rule:evenodd"
viewBox="0 0 0.127 0.083"
 xmlns:xlink="http://www.w3.org/1999/xlink"
 xmlns:xodm="http://www.corel.com/coreldraw/odm/2003">
 <defs>
  <style type="text/css">
   <![CDATA[
    .fil1 {fill:#125490}
    .fil0 {fill:#125490;fill-rule:nonzero}
   ]]>
  </style>
 </defs>
 <g id="Слой_x0020_1">
  <metadata id="CorelCorpID_0Corel-Layer"/>
  <path class="fil0" d="M0.007 0.011l0.023 0 0 0.008 -0.007 0 0 0 -0.008 0 0 0.019 0.008 0 0 0 0.007 0 0 0.008 -0.023 0 0 -0.035zm0.027 0l0.023 0 0 0.035 -0.023 0 0 -0.035zm0.007 0.008l0 0.019 0.009 0 0 -0.019 -0.009 0zm0.032 -0.008l0.022 0 0 0.035 -0.022 0 0 -0.014 -0.005 0 0 0.014 -0.007 0 0 -0.035 0.007 0 0 0.014 0.005 0 0 -0.014zm0.007 0.008l0 0.019 0.007 0 0 -0.019 -0.007 0zm0.018 -0.008l0.022 0 0 0.008 -0.008 0.009 0.008 0.01 0 0.008 -0.022 0 0 -0.008 0.013 0 -0.008 -0.01 0.008 -0.009 -0.013 0 0 -0.008z"/>
  <path class="fil0" d="M0 0.057l0 -0.007c0.017,0 0.082,0 0.127,0l0 0.007 -0.127 0z"/>
  <path class="fil0" d="M0 0l0 0.007c0.04,0 0.099,0 0.127,0l0 -0.007 -0.127 0z"/>
  <polygon class="fil1" points="0.019,0.083 0.035,0.067 0.03,0.062 0.025,0.067 0.019,0.073 0.008,0.062 0.003,0.067 "/>
 </g>
</svg>
