<?xml version="1.0" encoding="UTF-8"?>
<!DOCTYPE svg PUBLIC "-//W3C//DTD SVG 1.1//EN" "http://www.w3.org/Graphics/SVG/1.1/DTD/svg11.dtd">
<!-- Creator: CorelDRAW 2021 (64-Bit) -->
<svg xmlns="http://www.w3.org/2000/svg" xml:space="preserve" width="105px" height="105px" version="1.1" style="shape-rendering:geometricPrecision; text-rendering:geometricPrecision; image-rendering:optimizeQuality; fill-rule:evenodd; clip-rule:evenodd"
viewBox="0 0 8.125 8.125"
 xmlns:xlink="http://www.w3.org/1999/xlink"
 xmlns:xodm="http://www.corel.com/coreldraw/odm/2003">
 <defs>
  <style type="text/css">
   <![CDATA[
    .str1 {stroke:white;stroke-width:0.227;stroke-miterlimit:22.9256}
    .str0 {stroke:red;stroke-width:0.114;stroke-miterlimit:22.9256}
    .str2 {stroke:red;stroke-width:0.114;stroke-miterlimit:22.9256}
    .fil0 {fill:none}
    .fil1 {fill:red;fill-rule:nonzero}
   ]]>
  </style>
 </defs>
 <g id="Слой_x0020_1">
  <metadata id="CorelCorpID_0Corel-Layer"/>
  <g id="_1262889369584">
   <path class="fil0 str0" d="M1.303 6.822l0.739 -0.739 -0.739 0.739zm4.883 -4.883l0.708 -0.707 -0.708 0.707zm0.019 -1.396l1.377 1.377 -1.377 -1.377z"/>
   <path class="fil0 str1" d="M6.486 0.262l0.055 -0.055c0.124,-0.124 0.327,-0.124 0.451,0l0.926 0.926c0.124,0.124 0.124,0.327 0,0.451l-0.055 0.055 -1.377 -1.377zm-5.871 5.872l1.377 1.377 -1.377 -1.377zm5.871 -5.872l1.377 1.377 -1.595 1.595 0 -1.064c0,-0.202 -0.164,-0.366 -0.365,-0.366l-0.959 0 1.542 -1.542zm-3.149 5.903l-1.345 1.346 -1.805 0.427 0.428 -1.804 1.292 -1.293 0 0.959c0,0.201 0.164,0.365 0.366,0.365l1.064 0z"/>
  </g>
  <g id="_1262889370880">
   <path class="fil0 str1" d="M0.207 1.189l0.926 -0.927c0.124,-0.124 0.327,-0.124 0.451,0l1.542 1.542 -0.853 0c-0.202,0 -0.366,0.164 -0.366,0.366l0 1.169 -1.7 -1.7c-0.124,-0.124 -0.124,-0.326 0,-0.45zm6.061 3.757l1.595 1.595c0.124,0.124 0.124,0.327 0,0.451l-0.926 0.926c-0.124,0.124 -0.327,0.124 -0.451,0l-1.753 -1.753 1.17 0c0.201,0 0.365,-0.164 0.365,-0.365l0 -0.854z"/>
   <polygon class="fil0 str0" points="1.712,0.805 1.274,1.243 "/>
   <polygon class="fil0 str0" points="2.272,1.366 1.834,1.804 "/>
   <polygon class="fil0 str0" points="6.759,5.853 6.321,6.291 "/>
   <polygon class="fil0 str0" points="7.32,6.414 6.882,6.852 "/>
  </g>
  <g id="_1262889380912">
   <path class="fil0 str1" d="M2.273 1.804l3.63 0c0.201,0 0.365,0.164 0.365,0.366l0 3.63c0,0.201 -0.164,0.365 -0.365,0.365l-3.63 0c-0.202,0 -0.366,-0.164 -0.366,-0.365l0 -3.63c0,-0.202 0.164,-0.366 0.366,-0.366z"/>
   <polygon class="fil1" points="4.645,4.781 5.016,5.172 5.931,4.296 6.017,4.369 5.02,5.547 4.551,4.844 "/>
   <path class="fil0 str2" d="M4.088 5.018l0 0.384c-0.213,0 -0.388,0.16 -0.411,0.367 -0.201,-0.046 -0.39,-0.126 -0.56,-0.232 0.13,-0.163 0.12,-0.4 -0.031,-0.55 -0.15,-0.151 -0.388,-0.161 -0.55,-0.031 -0.106,-0.17 -0.186,-0.359 -0.232,-0.56 0.207,-0.023 0.367,-0.198 0.367,-0.411 0,-0.213 -0.16,-0.388 -0.367,-0.411 0.046,-0.201 0.125,-0.39 0.232,-0.56 0.162,0.13 0.4,0.119 0.55,-0.031 0.151,-0.15 0.161,-0.388 0.031,-0.55 0.17,-0.107 0.359,-0.186 0.56,-0.232 0.023,0.206 0.198,0.367 0.411,0.367 0.213,0 0.388,-0.161 0.411,-0.367 0.201,0.046 0.39,0.125 0.56,0.232 -0.13,0.162 -0.12,0.4 0.031,0.55 0.15,0.15 0.388,0.161 0.55,0.031 0.107,0.17 0.186,0.359 0.232,0.56 -0.207,0.023 -0.367,0.198 -0.367,0.411l-0.384 0c0,-0.571 -0.463,-1.033 -1.033,-1.033 -0.571,0 -1.033,0.462 -1.033,1.033 0,0.57 0.462,1.033 1.033,1.033z"/>
  </g>
 </g>
</svg>
