<svg xmlns="http://www.w3.org/2000/svg" xml:space="preserve" width="30mm" height="30mm" version="1.1" style="shape-rendering:geometricPrecision; text-rendering:geometricPrecision; image-rendering:optimizeQuality; fill-rule:evenodd; clip-rule:evenodd"
viewBox="0 0 0.0565 0.0565">
 <defs>
  <style type="text/css">
   <![CDATA[
    .fil0 {fill:#25A3E1}
    .fil1 {fill:white}
   ]]>
  </style>
 </defs>
 <g id="tgIcon">
  <g id="_1536321939840">
   <circle class="fil0" cx="0.0282" cy="0.0282" r="0.0282"/>
   <path class="fil1" d="M0.0331 0.0229l-0.013 0.0087c-0.0014,0.0009 -0.0029,0.0011 -0.0044,0.0006l-0.0053 -0.0017c-0.0004,-0.0001 -0.0007,-0.0005 -0.0008,-0.001 -0,-0.0005 0.0002,-0.0009 0.0007,-0.0011l0.0297 -0.0123c0.0005,-0.0002 0.0012,-0.0003 0.0017,-0 0.0005,0.0003 0.0004,0.0011 0.0003,0.0016l-0.0036 0.0231c-0.0001,0.0009 -0.0007,0.0016 -0.0015,0.002 -0.0008,0.0004 -0.0017,0.0003 -0.0025,-0.0002l-0.0101 -0.007c-0.0004,-0.0003 -0.0006,-0.0006 -0.0006,-0.0011 -0,-0.0005 0.0001,-0.0009 0.0005,-0.0012l0.0098 -0.0093c0.0003,-0.0003 0.0003,-0.0007 0.0001,-0.001 -0.0002,-0.0003 -0.0007,-0.0004 -0.001,-0.0002z"/>
  </g>
 </g>
</svg>
