<?xml version="1.0" encoding="UTF-8"?>
<!DOCTYPE svg PUBLIC "-//W3C//DTD SVG 1.1//EN" "http://www.w3.org/Graphics/SVG/1.1/DTD/svg11.dtd">
<!-- Creator: CorelDRAW -->
<svg xmlns="http://www.w3.org/2000/svg" xml:space="preserve" width="48mm" height="48.3172mm" version="1.1" style="shape-rendering:geometricPrecision; text-rendering:geometricPrecision; image-rendering:optimizeQuality; fill-rule:evenodd; clip-rule:evenodd"
viewBox="0 0 0.07 0.0704"
 xmlns:xlink="http://www.w3.org/1999/xlink"
 xmlns:xodm="http://www.corel.com/coreldraw/odm/2003">
 <defs>
  <style type="text/css">
   <![CDATA[
    .fil0 {fill:#0D3E69;fill-rule:nonzero}
   ]]>
  </style>
 </defs>
 <g id="Слой_x0020_1">
  <metadata id="CorelCorpID_0Corel-Layer"/>
  <path class="fil0" d="M0.0186 0.0135l0.0328 0c0.003,0 0.0055,0.0024 0.0055,0.0055l0 0.0328c0,0.003 -0.0024,0.0055 -0.0055,0.0055l-0.0328 0c-0.003,0 -0.0055,-0.0024 -0.0055,-0.0055l0 -0.0328c0,-0.003 0.0024,-0.0055 0.0055,-0.0055zm0.0306 0.0295c-0.001,-0.0008 -0.0022,-0.0016 -0.0033,-0.0024 -0.0022,-0.0015 -0.0042,-0.0017 -0.0058,0.0008 -0.0009,0.0014 -0.0022,0.0014 -0.0035,0.0008 -0.0037,-0.0017 -0.0065,-0.0043 -0.0082,-0.008 -0.0007,-0.0017 -0.0007,-0.0032 0.001,-0.0043 0.0009,-0.0006 0.0018,-0.0014 0.0018,-0.0027 -0.0001,-0.0018 -0.0044,-0.0077 -0.0061,-0.0083 -0.0007,-0.0003 -0.0014,-0.0002 -0.0021,-0 -0.004,0.0013 -0.0056,0.0046 -0.0041,0.0085 0.0047,0.0116 0.013,0.0196 0.0244,0.0245 0.0007,0.0003 0.0014,0.0004 0.0017,0.0005 0.0026,0 0.0056,-0.0025 0.0065,-0.005 0.0008,-0.0024 -0.0009,-0.0033 -0.0024,-0.0045zm-0.0128 -0.0229c0.0083,0.0013 0.0122,0.0053 0.0133,0.0137 0.0001,0.0008 -0.0002,0.0019 0.0009,0.002 0.0012,0 0.0009,-0.0011 0.0009,-0.0019 0.0001,-0.0079 -0.0068,-0.0153 -0.0148,-0.0155 -0.0006,0.0001 -0.0019,-0.0004 -0.0019,0.0009 -0.0001,0.0009 0.001,0.0008 0.0017,0.0009zm0.0016 0.0023c-0.0008,-0.0001 -0.0019,-0.0005 -0.002,0.0006 -0.0002,0.0012 0.001,0.0011 0.0017,0.0012 0.0052,0.0012 0.0069,0.003 0.0078,0.0081 0.0001,0.0007 -0.0001,0.0019 0.0011,0.0017 0.0009,-0.0001 0.0006,-0.0011 0.0007,-0.0017 0,-0.0049 -0.0042,-0.0094 -0.0093,-0.01zm0.0005 0.004c-0.0005,0 -0.0011,0.0001 -0.0013,0.0006 -0.0003,0.0009 0.0003,0.0011 0.001,0.0012 0.0021,0.0003 0.0032,0.0016 0.0034,0.0037 0.0001,0.0006 0.0004,0.001 0.001,0.001 0.0008,-0.0001 0.0008,-0.0008 0.0008,-0.0014 0,-0.0024 -0.0026,-0.0051 -0.0049,-0.005z"/>
  <g id="_1536299786944">
   <path class="fil0" d="M-0 0.0704l0 -0.0091c0.0094,0 0.0453,0 0.07,0l0 0.0091 -0.07 0z"/>
   <path class="fil0" d="M-0 0l0 0.0091c0.0222,0 0.0543,0 0.07,0l0 -0.0091 -0.07 0z"/>
  </g>
 </g>
</svg>
