<svg xmlns="http://www.w3.org/2000/svg" xml:space="preserve" width="30.0812mm" height="31.7438mm" version="1.1" style="shape-rendering:geometricPrecision; text-rendering:geometricPrecision; image-rendering:optimizeQuality; fill-rule:evenodd; clip-rule:evenodd"
viewBox="0 0 0.0571 0.0603">
 <defs>
  <style type="text/css">
   <![CDATA[
    .fil0 {fill:#665CA7;fill-rule:nonzero}
   ]]>
  </style>
 </defs>
 <g id="viberIcon">
  <g id="_1536536476768">
   <path class="fil0" d="M0.0507 0.0059c-0.0015,-0.0013 -0.0075,-0.0058 -0.021,-0.0059 0,0 -0.0159,-0.0009 -0.0236,0.0062 -0.0043,0.0043 -0.0059,0.0106 -0.006,0.0184 -0.0002,0.0078 -0.0004,0.0225 0.0138,0.0265l0 0.0061c0,0 -0.0001,0.0025 0.0015,0.0029 0.002,0.0006 0.0031,-0.0013 0.005,-0.0032 0.001,-0.0011 0.0025,-0.0027 0.0035,-0.004 0.0096,0.0008 0.0171,-0.001 0.018,-0.0013 0.002,-0.0006 0.013,-0.0021 0.0148,-0.0167 0.0019,-0.0152 -0.0008,-0.0248 -0.0058,-0.029l0 0zm0.0017 0.0278c-0.0015,0.0123 -0.0104,0.013 -0.0121,0.0135 -0.0007,0.0002 -0.0072,0.0018 -0.0154,0.0013 0,0 -0.0061,0.0074 -0.0081,0.0093 -0.0003,0.0003 -0.0006,0.0004 -0.0009,0.0004 -0.0003,-0.0001 -0.0004,-0.0005 -0.0004,-0.001 0,-0.0008 0.0001,-0.0101 0.0001,-0.0101 -0.0119,-0.0033 -0.0112,-0.0158 -0.0112,-0.0224 0.0002,-0.0066 0.0013,-0.0119 0.005,-0.0155 0.0066,-0.0059 0.0201,-0.0051 0.0201,-0.0051 0.0114,0.0001 0.0168,0.0035 0.0181,0.0047 0.0041,0.0036 0.0062,0.0123 0.0047,0.0248l0 0z"/>
   <path class="fil0" d="M0.036 0.0243c0,0.0004 -0.0003,0.0008 -0.0007,0.0008 -0.0004,0 -0.0008,-0.0003 -0.0008,-0.0007 -0.0001,-0.0013 -0.0004,-0.0023 -0.001,-0.003 -0.0006,-0.0006 -0.0016,-0.001 -0.0028,-0.0011 -0.0004,-0 -0.0007,-0.0004 -0.0007,-0.0008 0,-0.0004 0.0004,-0.0007 0.0008,-0.0007 0.0017,0.0001 0.0029,0.0006 0.0038,0.0015 0.0009,0.0009 0.0014,0.0022 0.0015,0.0039zm0.004 0.0013c-0,0.0004 -0.0004,0.0007 -0.0008,0.0007 -0.0004,-0 -0.0007,-0.0004 -0.0007,-0.0008 0,-0.0013 -0.0001,-0.0025 -0.0005,-0.0035 -0.0004,-0.0011 -0.001,-0.0021 -0.0017,-0.0029l-0 -0c-0.0008,-0.0008 -0.0017,-0.0015 -0.0028,-0.002 -0.0011,-0.0005 -0.0024,-0.0008 -0.0038,-0.0009 -0.0004,-0 -0.0007,-0.0004 -0.0007,-0.0008 0,-0.0004 0.0004,-0.0007 0.0008,-0.0007 0.0016,0.0001 0.003,0.0005 0.0043,0.001 0.0013,0.0006 0.0024,0.0013 0.0033,0.0023 0,0 0,0 0,0 0.0009,0.001 0.0016,0.0021 0.002,0.0034 0.0004,0.0012 0.0006,0.0026 0.0006,0.0041z"/>
   <path class="fil0" d="M0.0439 0.0272c0,0.0004 -0.0003,0.0008 -0.0008,0.0008 -0.0004,0 -0.0008,-0.0003 -0.0008,-0.0008 0,-0.0023 -0.0004,-0.0044 -0.001,-0.0062 -0.0007,-0.0018 -0.0017,-0.0034 -0.0031,-0.0047 -0.0014,-0.0013 -0.0029,-0.0023 -0.0046,-0.003 -0.0017,-0.0007 -0.0035,-0.001 -0.0056,-0.001 -0.0004,0 -0.0008,-0.0003 -0.0008,-0.0008 0,-0.0004 0.0003,-0.0008 0.0008,-0.0008 0.0022,0 0.0043,0.0004 0.0061,0.0011 0.0019,0.0007 0.0036,0.0018 0.0051,0.0033 0.0015,0.0015 0.0027,0.0032 0.0034,0.0052 0.0008,0.002 0.0011,0.0042 0.0011,0.0067z"/>
   <path class="fil0" d="M0.0308 0.0345c0,0 0.0011,0.0001 0.0017,-0.0006l0.0011 -0.0014c0.0006,-0.0007 0.0018,-0.0012 0.0032,-0.0005 0.0007,0.0004 0.002,0.0012 0.0028,0.0018 0.0009,0.0006 0.0026,0.0021 0.0026,0.0021 0.0009,0.0007 0.001,0.0017 0.0005,0.0028 -0.0006,0.001 -0.0013,0.002 -0.0024,0.0028 -0.0008,0.0007 -0.0016,0.001 -0.0024,0.0012l-0.0003 0c-0.0003,0 -0.0007,-0.0001 -0.001,-0.0002 -0.0012,-0.0003 -0.0032,-0.0012 -0.0066,-0.003 -0.0021,-0.0012 -0.004,-0.0025 -0.0055,-0.0036 -0.0008,-0.0006 -0.0017,-0.0013 -0.0025,-0.0022l-0.0003 -0.0003c-0.0009,-0.0009 -0.0016,-0.0017 -0.0022,-0.0025 -0.0012,-0.0015 -0.0025,-0.0033 -0.0036,-0.0055 -0.0018,-0.0033 -0.0027,-0.0053 -0.003,-0.0066 -0.0001,-0.0003 -0.0002,-0.0006 -0.0002,-0.001l0 -0.0003c0.0001,-0.0008 0.0005,-0.0016 0.0012,-0.0024 0.0009,-0.0009 0.0018,-0.0017 0.0028,-0.0024 0.0011,-0.0006 0.0021,-0.0004 0.0028,0.0005 0,0 0.0014,0.0017 0.0021,0.0026 0.0006,0.0008 0.0013,0.0021 0.0018,0.0028 0.0007,0.0013 0.0002,0.0026 -0.0004,0.0032l-0.0014 0.0011c-0.0007,0.0006 -0.0006,0.0017 -0.0006,0.0017 0,0 0.002,0.0078 0.0098,0.0099l0 0z"/>
  </g>
 </g>
</svg>
