<svg xmlns="http://www.w3.org/2000/svg" xml:space="preserve" width="29.6252mm" height="29.6172mm" version="1.1" style="shape-rendering:geometricPrecision; text-rendering:geometricPrecision; image-rendering:optimizeQuality; fill-rule:evenodd; clip-rule:evenodd"
viewBox="0 0 0.0557 0.0557">
 <defs>
  <style type="text/css">
   <![CDATA[
    .fil0 {fill:#25D366}
   ]]>
  </style>
 </defs>
 <g id="whatsAppIcon">
  <g id="_1495609601152">
   <path class="fil0" d="M0.0158 0.0462c0.0036,0.0024 0.0079,0.0038 0.0125,0.0038 0.0125,0 0.0226,-0.0101 0.0226,-0.0226 0,-0.0125 -0.0101,-0.0226 -0.0226,-0.0226 -0.0125,0 -0.0226,0.0101 -0.0226,0.0226 0,0.0048 0.0015,0.0092 0.004,0.0128l-0.0029 0.0088 0.009 -0.0028zm-0.0011 0.0049c0.004,0.0023 0.0087,0.0036 0.0136,0.0036 0.0151,0 0.0274,-0.0123 0.0274,-0.0274 0,-0.0151 -0.0123,-0.0274 -0.0274,-0.0274 -0.0151,0 -0.0274,0.0123 -0.0274,0.0274 0,0.0051 0.0014,0.0099 0.0038,0.014l-0.0048 0.0143 0.0147 -0.0046z"/>
   <path class="fil0" d="M0.0171 0.0158c-0.0018,0.0016 -0.0025,0.0046 -0.002,0.0067 0.0034,0.01 0.0105,0.0151 0.0196,0.0175 0.0032,0.0002 0.0059,-0.001 0.007,-0.0032 0.0005,-0.0017 0.0007,-0.003 0.0002,-0.0034 -0.0019,-0.0009 -0.0039,-0.0019 -0.0058,-0.0028 -0.0005,-0.0002 -0.0009,-0.0001 -0.0013,0.0003 -0.0007,0.0009 -0.0014,0.0017 -0.0021,0.0026 -0.0003,0.0003 -0.0006,0.0005 -0.001,0.0005 -0.0043,-0.0014 -0.0076,-0.0043 -0.0099,-0.0083 -0.0001,-0.0005 0,-0.0008 0.0002,-0.0011 0.0005,-0.0006 0.001,-0.0012 0.0015,-0.0018 0.0004,-0.0006 0.0004,-0.0011 0.0003,-0.0016l-0.0023 -0.0054c-0.0005,-0.0011 -0.0034,-0.0011 -0.0046,0.0002z"/>
  </g>
 </g>
</svg>
