<?xml version="1.0" encoding="UTF-8"?>
<!DOCTYPE svg PUBLIC "-//W3C//DTD SVG 1.1//EN" "http://www.w3.org/Graphics/SVG/1.1/DTD/svg11.dtd">
<!-- Creator: CorelDRAW -->
<svg xmlns="http://www.w3.org/2000/svg" xml:space="preserve" width="48mm" height="48.3172mm" version="1.1" style="shape-rendering:geometricPrecision; text-rendering:geometricPrecision; image-rendering:optimizeQuality; fill-rule:evenodd; clip-rule:evenodd"
viewBox="0 0 0.0702 0.0706"
 xmlns:xlink="http://www.w3.org/1999/xlink"
 xmlns:xodm="http://www.corel.com/coreldraw/odm/2003">
 <defs>
  <style type="text/css">
   <![CDATA[
    .fil1 {fill:#0D3E69}
    .fil2 {fill:white}
    .fil0 {fill:#0D3E69;fill-rule:nonzero}
   ]]>
  </style>
 </defs>
 <g id="Слой_x0020_1">
  <metadata id="CorelCorpID_0Corel-Layer"/>
  <g id="_1536319496912">
   <path class="fil0" d="M-0 0.0706l0 -0.0091c0.0094,0 0.0454,0 0.0702,0l0 0.0091 -0.0702 0z"/>
   <path class="fil0" d="M-0 0l0 0.0091c0.0223,0 0.0545,0 0.0702,0l0 -0.0091 -0.0702 0z"/>
  </g>
  <g id="_1536319500992">
   <path class="fil1" d="M0.0249 0.0536c0.0031,0.0018 0.0067,0.0028 0.0106,0.0028 0.0118,0 0.0213,-0.0095 0.0213,-0.0213 0,-0.0118 -0.0095,-0.0213 -0.0213,-0.0213 -0.0118,0 -0.0213,0.0095 -0.0213,0.0213 0,0.004 0.0011,0.0077 0.003,0.0109l-0.0037 0.0111 0.0114 -0.0035z"/>
   <path class="fil2" d="M0.0267 0.0261c-0.0014,0.0012 -0.0019,0.0035 -0.0016,0.0052 0.0026,0.0078 0.0081,0.0118 0.0152,0.0136 0.0025,0.0002 0.0046,-0.0008 0.0055,-0.0025 0.0004,-0.0013 0.0005,-0.0023 0.0002,-0.0026 -0.0015,-0.0007 -0.003,-0.0015 -0.0045,-0.0022 -0.0004,-0.0002 -0.0007,-0.0001 -0.001,0.0002 -0.0005,0.0007 -0.0011,0.0013 -0.0016,0.002 -0.0002,0.0002 -0.0004,0.0004 -0.0008,0.0004 -0.0034,-0.0011 -0.0059,-0.0033 -0.0077,-0.0064 -0.0001,-0.0004 0,-0.0006 0.0002,-0.0008 0.0004,-0.0005 0.0008,-0.001 0.0012,-0.0014 0.0003,-0.0004 0.0003,-0.0009 0.0002,-0.0013l-0.0018 -0.0042c-0.0004,-0.0009 -0.0026,-0.0009 -0.0036,0.0001z"/>
  </g>
 </g>
</svg>
