<?xml version="1.0" encoding="UTF-8"?>
<!DOCTYPE svg PUBLIC "-//W3C//DTD SVG 1.1//EN" "http://www.w3.org/Graphics/SVG/1.1/DTD/svg11.dtd">
<!-- Creator: CorelDRAW 2021 (64-Bit) -->
<svg xmlns="http://www.w3.org/2000/svg" xml:space="preserve" width="597px" height="597px" version="1.1" style="shape-rendering:geometricPrecision; text-rendering:geometricPrecision; image-rendering:optimizeQuality; fill-rule:evenodd; clip-rule:evenodd"
viewBox="0 0 2.396 2.396"
 xmlns:xlink="http://www.w3.org/1999/xlink"
 xmlns:xodm="http://www.corel.com/coreldraw/odm/2003">
 <defs>
  <style type="text/css">
   <![CDATA[
    .str0 {stroke:#52585F;stroke-width:0.006;stroke-miterlimit:22.9256}
    .fil2 {fill:none}
    .fil0 {fill:#52585F}
    .fil1 {fill:#52585F}
   ]]>
  </style>
 </defs>
 <g id="Слой_x0020_1">
  <metadata id="CorelCorpID_0Corel-Layer"/>
  <path class="fil0" d="M2.291 0.006c0.004,-0.005 0.012,-0.005 0.017,0 0.004,0.004 0.004,0.012 0,0.016 -0.005,0.005 -0.013,0.005 -0.017,0 -0.005,-0.004 -0.005,-0.012 0,-0.016z"/>
  <path class="fil0" d="M2.355 0.069c0.004,-0.004 0.012,-0.004 0.016,0 0.005,0.005 0.005,0.013 0,0.017 -0.004,0.005 -0.012,0.005 -0.016,0 -0.005,-0.004 -0.005,-0.012 0,-0.017z"/>
  <path class="fil0" d="M2.163 0.006c0.005,-0.005 0.012,-0.005 0.017,0 0.004,0.004 0.004,0.012 0,0.016 -0.005,0.005 -0.012,0.005 -0.017,0 -0.005,-0.004 -0.005,-0.012 0,-0.016z"/>
  <path class="fil0" d="M2.227 0.069c0.004,-0.004 0.012,-0.004 0.017,0 0.004,0.005 0.004,0.013 0,0.017 -0.005,0.005 -0.012,0.005 -0.017,0 -0.005,-0.004 -0.005,-0.012 0,-0.017z"/>
  <path class="fil0" d="M2.291 0.133c0.004,-0.004 0.012,-0.004 0.017,0 0.004,0.005 0.004,0.013 0,0.017 -0.005,0.005 -0.013,0.005 -0.017,0 -0.005,-0.005 -0.005,-0.012 0,-0.017z"/>
  <path class="fil0" d="M2.355 0.197c0.004,-0.004 0.012,-0.004 0.016,0 0.005,0.005 0.005,0.012 0,0.017 -0.004,0.005 -0.012,0.005 -0.016,0 -0.005,-0.005 -0.005,-0.012 0,-0.017z"/>
  <path class="fil0" d="M2.035 0.006c0.005,-0.005 0.012,-0.005 0.017,0 0.005,0.004 0.005,0.012 0,0.016 -0.005,0.005 -0.012,0.005 -0.017,0 -0.004,-0.004 -0.004,-0.012 0,-0.016z"/>
  <path class="fil0" d="M2.099 0.069c0.005,-0.004 0.012,-0.004 0.017,0 0.005,0.005 0.005,0.013 0,0.017 -0.005,0.005 -0.012,0.005 -0.017,0 -0.005,-0.004 -0.005,-0.012 0,-0.017z"/>
  <path class="fil0" d="M2.163 0.133c0.005,-0.004 0.012,-0.004 0.017,0 0.004,0.005 0.004,0.013 0,0.017 -0.005,0.005 -0.012,0.005 -0.017,0 -0.005,-0.005 -0.005,-0.012 0,-0.017z"/>
  <path class="fil0" d="M2.227 0.197c0.004,-0.004 0.012,-0.004 0.017,0 0.004,0.005 0.004,0.012 0,0.017 -0.005,0.005 -0.012,0.005 -0.017,0 -0.005,-0.005 -0.005,-0.012 0,-0.017z"/>
  <path class="fil0" d="M2.291 0.261c0.004,-0.005 0.012,-0.005 0.017,0 0.004,0.005 0.004,0.012 0,0.017 -0.005,0.005 -0.013,0.005 -0.017,0 -0.005,-0.005 -0.005,-0.012 0,-0.017z"/>
  <path class="fil0" d="M2.355 0.325c0.004,-0.005 0.012,-0.005 0.016,0 0.005,0.005 0.005,0.012 0,0.017 -0.004,0.004 -0.012,0.004 -0.016,0 -0.005,-0.005 -0.005,-0.012 0,-0.017z"/>
  <path class="fil0" d="M1.907 0.006c0.005,-0.005 0.013,-0.005 0.017,0 0.005,0.004 0.005,0.012 0,0.016 -0.004,0.005 -0.012,0.005 -0.017,0 -0.004,-0.004 -0.004,-0.012 0,-0.016z"/>
  <path class="fil0" d="M1.971 0.069c0.005,-0.004 0.012,-0.004 0.017,0 0.005,0.005 0.005,0.013 0,0.017 -0.004,0.005 -0.012,0.005 -0.017,0 -0.004,-0.004 -0.004,-0.012 0,-0.017z"/>
  <path class="fil0" d="M2.035 0.133c0.005,-0.004 0.012,-0.004 0.017,0 0.005,0.005 0.005,0.013 0,0.017 -0.005,0.005 -0.012,0.005 -0.017,0 -0.004,-0.005 -0.004,-0.012 0,-0.017z"/>
  <path class="fil0" d="M2.099 0.197c0.005,-0.004 0.012,-0.004 0.017,0 0.005,0.005 0.005,0.012 0,0.017 -0.005,0.005 -0.012,0.005 -0.017,0 -0.005,-0.005 -0.005,-0.012 0,-0.017z"/>
  <path class="fil0" d="M2.163 0.261c0.005,-0.005 0.012,-0.005 0.017,0 0.004,0.005 0.004,0.012 0,0.017 -0.005,0.005 -0.012,0.005 -0.017,0 -0.005,-0.005 -0.005,-0.012 0,-0.017z"/>
  <path class="fil0" d="M2.227 0.325c0.004,-0.005 0.012,-0.005 0.017,0 0.004,0.005 0.004,0.012 0,0.017 -0.005,0.004 -0.012,0.004 -0.017,0 -0.005,-0.005 -0.005,-0.012 0,-0.017z"/>
  <path class="fil0" d="M2.291 0.389c0.004,-0.005 0.012,-0.005 0.017,0 0.004,0.005 0.004,0.012 0,0.017 -0.005,0.004 -0.013,0.004 -0.017,0 -0.005,-0.005 -0.005,-0.013 0,-0.017z"/>
  <path class="fil0" d="M2.355 0.453c0.004,-0.005 0.012,-0.005 0.016,0 0.005,0.004 0.005,0.012 0,0.017 -0.004,0.004 -0.012,0.004 -0.016,0 -0.005,-0.005 -0.005,-0.013 0,-0.017z"/>
  <path class="fil0" d="M1.78 0.006c0.004,-0.005 0.012,-0.005 0.016,0 0.005,0.004 0.005,0.012 0.001,0.016 -0.005,0.005 -0.013,0.005 -0.017,0 -0.005,-0.004 -0.005,-0.012 0,-0.016z"/>
  <path class="fil0" d="M1.844 0.069c0.004,-0.004 0.012,-0.004 0.016,0 0.005,0.005 0.005,0.013 0,0.017 -0.004,0.005 -0.012,0.005 -0.016,0 -0.005,-0.004 -0.005,-0.012 0,-0.017z"/>
  <path class="fil0" d="M1.907 0.133c0.005,-0.004 0.013,-0.004 0.017,0 0.005,0.005 0.005,0.013 0,0.017 -0.004,0.005 -0.012,0.005 -0.017,0 -0.004,-0.005 -0.004,-0.012 0,-0.017z"/>
  <path class="fil0" d="M1.971 0.197c0.005,-0.004 0.012,-0.004 0.017,0 0.005,0.005 0.005,0.012 0,0.017 -0.004,0.005 -0.012,0.005 -0.017,0 -0.004,-0.005 -0.004,-0.012 0,-0.017z"/>
  <path class="fil0" d="M2.035 0.261c0.005,-0.005 0.012,-0.005 0.017,0 0.005,0.005 0.005,0.012 0,0.017 -0.005,0.005 -0.012,0.005 -0.017,0 -0.004,-0.005 -0.004,-0.012 0,-0.017z"/>
  <path class="fil0" d="M2.099 0.325c0.005,-0.005 0.012,-0.005 0.017,0 0.005,0.005 0.005,0.012 0,0.017 -0.005,0.004 -0.012,0.004 -0.017,0 -0.005,-0.005 -0.005,-0.012 0,-0.017z"/>
  <path class="fil0" d="M2.163 0.389c0.005,-0.005 0.012,-0.005 0.017,0 0.004,0.005 0.004,0.012 0,0.017 -0.005,0.004 -0.012,0.004 -0.017,0 -0.005,-0.005 -0.005,-0.013 0,-0.017z"/>
  <path class="fil0" d="M2.227 0.453c0.004,-0.005 0.012,-0.005 0.017,0 0.004,0.004 0.004,0.012 0,0.017 -0.005,0.004 -0.012,0.004 -0.017,0 -0.005,-0.005 -0.005,-0.013 0,-0.017z"/>
  <path class="fil0" d="M2.291 0.517c0.004,-0.005 0.012,-0.005 0.017,0 0.004,0.004 0.004,0.012 0,0.016 -0.005,0.005 -0.013,0.005 -0.017,0 -0.005,-0.004 -0.005,-0.012 0,-0.016z"/>
  <path class="fil0" d="M2.355 0.58c0.004,-0.004 0.012,-0.004 0.016,0.001 0.005,0.004 0.005,0.012 0,0.016 -0.004,0.005 -0.012,0.005 -0.016,0 -0.005,-0.004 -0.005,-0.012 0,-0.017z"/>
  <path class="fil0" d="M1.652 0.006c0.004,-0.005 0.012,-0.005 0.017,0 0.004,0.004 0.004,0.012 0,0.016 -0.005,0.005 -0.012,0.005 -0.017,0 -0.005,-0.004 -0.005,-0.012 0,-0.016z"/>
  <path class="fil0" d="M1.716 0.069c0.004,-0.004 0.012,-0.004 0.017,0 0.004,0.005 0.004,0.013 0,0.017 -0.005,0.005 -0.013,0.005 -0.017,0 -0.005,-0.004 -0.005,-0.012 0,-0.017z"/>
  <path class="fil0" d="M1.78 0.133c0.004,-0.004 0.012,-0.004 0.016,0 0.005,0.005 0.005,0.013 0.001,0.017 -0.005,0.005 -0.013,0.005 -0.017,0 -0.005,-0.005 -0.005,-0.012 0,-0.017z"/>
  <path class="fil0" d="M1.844 0.197c0.004,-0.004 0.012,-0.004 0.016,0 0.005,0.005 0.005,0.012 0,0.017 -0.004,0.005 -0.012,0.005 -0.016,0 -0.005,-0.005 -0.005,-0.012 0,-0.017z"/>
  <path class="fil0" d="M1.907 0.261c0.005,-0.005 0.013,-0.005 0.017,0 0.005,0.005 0.005,0.012 0,0.017 -0.004,0.005 -0.012,0.005 -0.017,0 -0.004,-0.005 -0.004,-0.012 0,-0.017z"/>
  <path class="fil0" d="M1.971 0.325c0.005,-0.005 0.012,-0.005 0.017,0 0.005,0.005 0.005,0.012 0,0.017 -0.004,0.004 -0.012,0.004 -0.017,0 -0.004,-0.005 -0.004,-0.012 0,-0.017z"/>
  <path class="fil0" d="M2.035 0.389c0.005,-0.005 0.012,-0.005 0.017,0 0.005,0.005 0.005,0.012 0,0.017 -0.005,0.004 -0.012,0.004 -0.017,0 -0.004,-0.005 -0.004,-0.013 0,-0.017z"/>
  <path class="fil0" d="M2.099 0.453c0.005,-0.005 0.012,-0.005 0.017,0 0.005,0.004 0.005,0.012 0,0.017 -0.005,0.004 -0.012,0.004 -0.017,0 -0.005,-0.005 -0.005,-0.013 0,-0.017z"/>
  <path class="fil0" d="M2.163 0.517c0.005,-0.005 0.012,-0.005 0.017,0 0.004,0.004 0.004,0.012 0,0.016 -0.005,0.005 -0.012,0.005 -0.017,0 -0.005,-0.004 -0.005,-0.012 0,-0.016z"/>
  <path class="fil0" d="M2.227 0.58c0.004,-0.004 0.012,-0.004 0.017,0.001 0.004,0.004 0.004,0.012 0,0.016 -0.005,0.005 -0.012,0.005 -0.017,0 -0.005,-0.004 -0.005,-0.012 0,-0.017z"/>
  <path class="fil0" d="M2.291 0.644c0.004,-0.004 0.012,-0.004 0.017,0 0.004,0.005 0.004,0.013 0,0.017 -0.005,0.005 -0.013,0.005 -0.017,0 -0.005,-0.004 -0.005,-0.012 0,-0.017z"/>
  <path class="fil0" d="M2.355 0.708c0.004,-0.004 0.012,-0.004 0.016,0 0.005,0.005 0.005,0.013 0,0.017 -0.004,0.005 -0.012,0.005 -0.016,0 -0.005,-0.005 -0.005,-0.012 0,-0.017z"/>
  <path class="fil0" d="M1.524 0.006c0.005,-0.005 0.012,-0.005 0.017,0 0.005,0.004 0.005,0.012 0,0.016 -0.005,0.005 -0.012,0.005 -0.017,0 -0.005,-0.004 -0.005,-0.012 0,-0.016z"/>
  <path class="fil0" d="M1.588 0.069c0.005,-0.004 0.012,-0.004 0.017,0 0.004,0.005 0.005,0.013 0,0.017 -0.005,0.005 -0.012,0.005 -0.017,0 -0.005,-0.004 -0.005,-0.012 0,-0.017z"/>
  <path class="fil0" d="M1.652 0.133c0.005,-0.004 0.012,-0.004 0.017,0 0.004,0.005 0.004,0.013 0,0.017 -0.005,0.005 -0.012,0.005 -0.017,0 -0.005,-0.005 -0.005,-0.012 0,-0.017z"/>
  <path class="fil0" d="M1.716 0.197c0.004,-0.004 0.012,-0.004 0.017,0 0.004,0.005 0.004,0.012 0,0.017 -0.005,0.005 -0.013,0.005 -0.017,0 -0.005,-0.005 -0.005,-0.012 0,-0.017z"/>
  <path class="fil0" d="M1.78 0.261c0.004,-0.005 0.012,-0.005 0.016,0 0.005,0.005 0.005,0.012 0.001,0.017 -0.005,0.005 -0.013,0.005 -0.017,0 -0.005,-0.005 -0.005,-0.012 0,-0.017z"/>
  <path class="fil0" d="M1.844 0.325c0.004,-0.005 0.012,-0.005 0.016,0 0.005,0.005 0.005,0.012 0,0.017 -0.004,0.004 -0.012,0.004 -0.016,0 -0.005,-0.005 -0.005,-0.012 0,-0.017z"/>
  <path class="fil0" d="M1.907 0.389c0.005,-0.005 0.013,-0.005 0.017,0 0.005,0.005 0.005,0.012 0,0.017 -0.004,0.004 -0.012,0.004 -0.017,0 -0.004,-0.005 -0.004,-0.013 0,-0.017z"/>
  <path class="fil0" d="M1.971 0.453c0.005,-0.005 0.012,-0.005 0.017,0 0.005,0.004 0.005,0.012 0,0.017 -0.004,0.004 -0.012,0.004 -0.017,0 -0.004,-0.005 -0.004,-0.013 0,-0.017z"/>
  <path class="fil0" d="M2.035 0.517c0.005,-0.005 0.012,-0.005 0.017,0 0.005,0.004 0.005,0.012 0,0.016 -0.005,0.005 -0.012,0.005 -0.017,0 -0.004,-0.004 -0.004,-0.012 0,-0.016z"/>
  <path class="fil0" d="M2.099 0.58c0.005,-0.004 0.012,-0.004 0.017,0.001 0.005,0.004 0.005,0.012 0,0.016 -0.005,0.005 -0.012,0.005 -0.017,0 -0.005,-0.004 -0.005,-0.012 0,-0.017z"/>
  <path class="fil0" d="M2.163 0.644c0.005,-0.004 0.012,-0.004 0.017,0 0.004,0.005 0.004,0.013 0,0.017 -0.005,0.005 -0.012,0.005 -0.017,0 -0.005,-0.004 -0.005,-0.012 0,-0.017z"/>
  <path class="fil0" d="M2.227 0.708c0.004,-0.004 0.012,-0.004 0.017,0 0.004,0.005 0.004,0.013 0,0.017 -0.005,0.005 -0.012,0.005 -0.017,0 -0.005,-0.005 -0.005,-0.012 0,-0.017z"/>
  <path class="fil0" d="M2.291 0.772c0.004,-0.005 0.012,-0.004 0.017,0 0.004,0.005 0.004,0.012 0,0.017 -0.005,0.005 -0.013,0.005 -0.017,0 -0.005,-0.005 -0.005,-0.012 0,-0.017z"/>
  <path class="fil0" d="M2.355 0.836c0.004,-0.005 0.012,-0.005 0.016,0 0.005,0.005 0.005,0.012 0,0.017 -0.004,0.005 -0.012,0.005 -0.016,0 -0.005,-0.005 -0.005,-0.012 0,-0.017z"/>
  <path class="fil0" d="M1.46 0.069c0.005,-0.004 0.012,-0.004 0.017,0 0.005,0.005 0.005,0.013 0,0.017 -0.005,0.005 -0.012,0.005 -0.017,0 -0.004,-0.004 -0.004,-0.012 0,-0.017z"/>
  <path class="fil0" d="M1.524 0.133c0.005,-0.004 0.012,-0.004 0.017,0 0.005,0.005 0.005,0.013 0,0.017 -0.005,0.005 -0.012,0.005 -0.017,0 -0.004,-0.005 -0.005,-0.012 0,-0.017z"/>
  <path class="fil0" d="M1.588 0.197c0.005,-0.004 0.012,-0.004 0.017,0 0.004,0.005 0.005,0.012 0,0.017 -0.005,0.005 -0.012,0.005 -0.017,0 -0.005,-0.005 -0.005,-0.012 0,-0.017z"/>
  <path class="fil0" d="M1.652 0.261c0.005,-0.005 0.012,-0.005 0.017,0 0.004,0.005 0.004,0.012 0,0.017 -0.005,0.005 -0.012,0.005 -0.017,0 -0.005,-0.005 -0.005,-0.012 0,-0.017z"/>
  <path class="fil0" d="M1.716 0.325c0.004,-0.005 0.012,-0.005 0.017,0 0.004,0.005 0.004,0.012 0,0.017 -0.005,0.004 -0.013,0.004 -0.017,0 -0.005,-0.005 -0.005,-0.012 0,-0.017z"/>
  <path class="fil0" d="M1.78 0.389c0.004,-0.005 0.012,-0.005 0.016,0 0.005,0.005 0.005,0.012 0.001,0.017 -0.005,0.004 -0.013,0.004 -0.017,0 -0.005,-0.005 -0.005,-0.013 0,-0.017z"/>
  <path class="fil0" d="M1.844 0.453c0.004,-0.005 0.012,-0.005 0.016,0 0.005,0.004 0.005,0.012 0,0.017 -0.004,0.004 -0.012,0.004 -0.016,0 -0.005,-0.005 -0.005,-0.013 0,-0.017z"/>
  <path class="fil0" d="M1.907 0.517c0.005,-0.005 0.013,-0.005 0.017,0 0.005,0.004 0.005,0.012 0,0.016 -0.004,0.005 -0.012,0.005 -0.017,0 -0.004,-0.004 -0.004,-0.012 0,-0.016z"/>
  <path class="fil0" d="M1.971 0.58c0.005,-0.004 0.012,-0.004 0.017,0.001 0.005,0.004 0.005,0.012 0,0.016 -0.004,0.005 -0.012,0.005 -0.017,0 -0.004,-0.004 -0.004,-0.012 0,-0.017z"/>
  <path class="fil0" d="M2.035 0.644c0.005,-0.004 0.012,-0.004 0.017,0 0.005,0.005 0.005,0.013 0,0.017 -0.005,0.005 -0.012,0.005 -0.017,0 -0.004,-0.004 -0.004,-0.012 0,-0.017z"/>
  <path class="fil0" d="M2.099 0.708c0.005,-0.004 0.012,-0.004 0.017,0 0.005,0.005 0.005,0.012 0,0.017 -0.005,0.005 -0.012,0.005 -0.017,0 -0.005,-0.005 -0.005,-0.012 0,-0.017z"/>
  <path class="fil0" d="M2.163 0.772c0.005,-0.005 0.012,-0.004 0.017,0 0.004,0.005 0.004,0.012 0,0.017 -0.005,0.005 -0.012,0.005 -0.017,0 -0.005,-0.005 -0.005,-0.012 0,-0.017z"/>
  <path class="fil0" d="M2.227 0.836c0.004,-0.005 0.012,-0.005 0.017,0 0.004,0.005 0.004,0.012 0,0.017 -0.005,0.005 -0.012,0.005 -0.017,0 -0.005,-0.005 -0.005,-0.012 0,-0.017z"/>
  <path class="fil0" d="M2.291 0.9c0.004,-0.005 0.012,-0.005 0.017,0 0.004,0.005 0.004,0.012 0,0.017 -0.005,0.004 -0.013,0.004 -0.017,0 -0.005,-0.005 -0.005,-0.012 0,-0.017z"/>
  <path class="fil0" d="M2.355 0.964c0.004,-0.005 0.012,-0.005 0.016,0 0.005,0.004 0.005,0.012 0,0.017 -0.004,0.004 -0.012,0.004 -0.016,0 -0.005,-0.005 -0.005,-0.013 0,-0.017z"/>
  <path class="fil0" d="M1.396 0.133c0.005,-0.004 0.013,-0.004 0.017,0 0.005,0.005 0.005,0.013 0,0.017 -0.004,0.005 -0.012,0.005 -0.017,0 -0.004,-0.005 -0.004,-0.012 0,-0.017z"/>
  <path class="fil0" d="M1.46 0.197c0.005,-0.004 0.012,-0.004 0.017,0 0.005,0.005 0.005,0.012 0,0.017 -0.005,0.005 -0.012,0.005 -0.017,0 -0.004,-0.005 -0.004,-0.012 0,-0.017z"/>
  <path class="fil0" d="M1.524 0.261c0.005,-0.005 0.012,-0.005 0.017,0 0.005,0.005 0.005,0.012 0,0.017 -0.005,0.005 -0.012,0.005 -0.017,0 -0.004,-0.005 -0.005,-0.012 0,-0.017z"/>
  <path class="fil0" d="M1.588 0.325c0.005,-0.005 0.012,-0.005 0.017,0 0.004,0.005 0.005,0.012 0,0.017 -0.005,0.004 -0.012,0.004 -0.017,0 -0.005,-0.005 -0.005,-0.012 0,-0.017z"/>
  <path class="fil0" d="M1.652 0.389c0.005,-0.005 0.012,-0.005 0.017,0 0.004,0.005 0.004,0.012 0,0.017 -0.005,0.004 -0.012,0.004 -0.017,0 -0.005,-0.005 -0.005,-0.013 0,-0.017z"/>
  <path class="fil0" d="M1.716 0.453c0.004,-0.005 0.012,-0.005 0.017,0 0.004,0.004 0.004,0.012 0,0.017 -0.005,0.004 -0.013,0.004 -0.017,0 -0.005,-0.005 -0.005,-0.013 0,-0.017z"/>
  <path class="fil0" d="M1.78 0.517c0.004,-0.005 0.012,-0.005 0.016,0 0.005,0.004 0.005,0.012 0.001,0.016 -0.005,0.005 -0.013,0.005 -0.017,0 -0.005,-0.004 -0.005,-0.012 0,-0.016z"/>
  <path class="fil0" d="M1.844 0.58c0.004,-0.004 0.012,-0.004 0.016,0.001 0.005,0.004 0.005,0.012 0,0.016 -0.004,0.005 -0.012,0.005 -0.016,0 -0.005,-0.004 -0.005,-0.012 0,-0.017z"/>
  <path class="fil0" d="M1.907 0.644c0.005,-0.004 0.013,-0.004 0.017,0 0.005,0.005 0.005,0.013 0,0.017 -0.004,0.005 -0.012,0.005 -0.017,0 -0.004,-0.004 -0.004,-0.012 0,-0.017z"/>
  <path class="fil0" d="M1.971 0.708c0.005,-0.004 0.012,-0.004 0.017,0 0.005,0.005 0.005,0.012 0,0.017 -0.004,0.005 -0.012,0.005 -0.017,0 -0.004,-0.005 -0.004,-0.012 0,-0.017z"/>
  <path class="fil0" d="M2.035 0.772c0.005,-0.005 0.012,-0.004 0.017,0 0.005,0.005 0.005,0.012 0,0.017 -0.005,0.005 -0.012,0.005 -0.017,0 -0.004,-0.005 -0.004,-0.012 0,-0.017z"/>
  <path class="fil0" d="M2.099 0.836c0.005,-0.005 0.012,-0.005 0.017,0 0.005,0.005 0.005,0.012 0,0.017 -0.005,0.005 -0.012,0.004 -0.017,0 -0.005,-0.005 -0.005,-0.012 0,-0.017z"/>
  <path class="fil0" d="M2.163 0.9c0.005,-0.005 0.012,-0.005 0.017,0 0.004,0.005 0.004,0.012 0,0.017 -0.005,0.004 -0.012,0.004 -0.017,0 -0.005,-0.005 -0.005,-0.012 0,-0.017z"/>
  <path class="fil0" d="M2.227 0.964c0.004,-0.005 0.012,-0.005 0.017,0 0.004,0.004 0.004,0.012 0,0.017 -0.005,0.004 -0.012,0.004 -0.017,0 -0.005,-0.005 -0.005,-0.013 0,-0.017z"/>
  <path class="fil0" d="M2.291 1.028c0.004,-0.005 0.012,-0.005 0.017,0 0.004,0.004 0.004,0.012 0,0.017 -0.005,0.004 -0.013,0.004 -0.017,-0.001 -0.005,-0.004 -0.005,-0.012 0,-0.016z"/>
  <path class="fil0" d="M2.355 1.092c0.004,-0.005 0.012,-0.005 0.016,0 0.005,0.004 0.005,0.012 0,0.016 -0.004,0.005 -0.012,0.005 -0.016,0 -0.005,-0.004 -0.005,-0.012 0,-0.016z"/>
  <path class="fil0" d="M1.332 0.197c0.005,-0.004 0.013,-0.004 0.017,0 0.005,0.005 0.005,0.012 0,0.017 -0.004,0.005 -0.012,0.005 -0.016,0 -0.005,-0.005 -0.005,-0.012 -0.001,-0.017z"/>
  <path class="fil0" d="M1.396 0.261c0.005,-0.005 0.013,-0.005 0.017,0 0.005,0.005 0.005,0.012 0,0.017 -0.004,0.005 -0.012,0.005 -0.017,0 -0.004,-0.005 -0.004,-0.012 0,-0.017z"/>
  <path class="fil0" d="M1.46 0.325c0.005,-0.005 0.012,-0.005 0.017,0 0.005,0.005 0.005,0.012 0,0.017 -0.005,0.004 -0.012,0.004 -0.017,0 -0.004,-0.005 -0.004,-0.012 0,-0.017z"/>
  <path class="fil0" d="M1.524 0.389c0.005,-0.005 0.012,-0.005 0.017,0 0.005,0.005 0.005,0.012 0,0.017 -0.005,0.004 -0.012,0.004 -0.017,0 -0.004,-0.005 -0.005,-0.013 0,-0.017z"/>
  <path class="fil0" d="M1.588 0.453c0.005,-0.005 0.012,-0.005 0.017,0 0.004,0.004 0.005,0.012 0,0.017 -0.005,0.004 -0.012,0.004 -0.017,0 -0.005,-0.005 -0.005,-0.013 0,-0.017z"/>
  <path class="fil0" d="M1.652 0.517c0.005,-0.005 0.012,-0.005 0.017,0 0.004,0.004 0.004,0.012 0,0.016 -0.005,0.005 -0.012,0.005 -0.017,0 -0.005,-0.004 -0.005,-0.012 0,-0.016z"/>
  <path class="fil0" d="M1.716 0.58c0.004,-0.004 0.012,-0.004 0.017,0.001 0.004,0.004 0.004,0.012 0,0.016 -0.005,0.005 -0.013,0.005 -0.017,0 -0.005,-0.004 -0.005,-0.012 0,-0.017z"/>
  <path class="fil0" d="M1.78 0.644c0.004,-0.004 0.012,-0.004 0.016,0 0.005,0.005 0.005,0.013 0.001,0.017 -0.005,0.005 -0.013,0.005 -0.017,0 -0.005,-0.004 -0.005,-0.012 0,-0.017z"/>
  <path class="fil0" d="M1.844 0.708c0.004,-0.004 0.012,-0.004 0.016,0 0.005,0.005 0.005,0.012 0,0.017 -0.004,0.005 -0.012,0.005 -0.016,0 -0.005,-0.005 -0.005,-0.012 0,-0.017z"/>
  <path class="fil0" d="M1.907 0.772c0.005,-0.005 0.013,-0.004 0.017,0 0.005,0.005 0.005,0.012 0,0.017 -0.004,0.005 -0.012,0.005 -0.017,0 -0.004,-0.005 -0.004,-0.012 0,-0.017z"/>
  <path class="fil0" d="M1.971 0.836c0.005,-0.005 0.012,-0.005 0.017,0 0.005,0.005 0.005,0.012 0,0.017 -0.004,0.005 -0.012,0.004 -0.017,0 -0.004,-0.005 -0.004,-0.012 0,-0.017z"/>
  <path class="fil0" d="M2.035 0.9c0.005,-0.005 0.012,-0.005 0.017,0 0.005,0.005 0.005,0.012 0,0.017 -0.005,0.004 -0.012,0.004 -0.017,0 -0.004,-0.005 -0.004,-0.012 0,-0.017z"/>
  <path class="fil0" d="M2.099 0.964c0.005,-0.005 0.012,-0.005 0.017,0 0.005,0.004 0.005,0.012 0,0.017 -0.005,0.004 -0.012,0.004 -0.017,0 -0.005,-0.005 -0.005,-0.013 0,-0.017z"/>
  <path class="fil0" d="M2.163 1.028c0.005,-0.005 0.012,-0.005 0.017,0 0.004,0.004 0.004,0.012 0,0.017 -0.005,0.004 -0.012,0.004 -0.017,-0.001 -0.005,-0.004 -0.005,-0.012 0,-0.016z"/>
  <path class="fil0" d="M2.227 1.092c0.004,-0.005 0.012,-0.005 0.017,0 0.004,0.004 0.004,0.012 0,0.016 -0.005,0.005 -0.012,0.005 -0.017,0 -0.005,-0.004 -0.005,-0.012 0,-0.016z"/>
  <path class="fil0" d="M2.291 1.155c0.004,-0.004 0.012,-0.004 0.017,0 0.004,0.005 0.004,0.013 0,0.017 -0.005,0.005 -0.013,0.005 -0.017,0 -0.005,-0.004 -0.005,-0.012 0,-0.017z"/>
  <path class="fil0" d="M2.355 1.219c0.004,-0.004 0.012,-0.004 0.016,0 0.005,0.005 0.005,0.013 0,0.017 -0.004,0.005 -0.012,0.005 -0.016,0 -0.005,-0.005 -0.005,-0.012 0,-0.017z"/>
  <path class="fil0" d="M1.269 0.261c0.004,-0.005 0.012,-0.005 0.016,0 0.005,0.005 0.005,0.012 0,0.017 -0.004,0.005 -0.012,0.005 -0.016,0 -0.005,-0.005 -0.005,-0.012 0,-0.017z"/>
  <path class="fil0" d="M1.332 0.325c0.005,-0.005 0.013,-0.005 0.017,0 0.005,0.005 0.005,0.012 0,0.017 -0.004,0.004 -0.012,0.004 -0.016,0 -0.005,-0.005 -0.005,-0.012 -0.001,-0.017z"/>
  <path class="fil0" d="M1.396 0.389c0.005,-0.005 0.013,-0.005 0.017,0 0.005,0.005 0.005,0.012 0,0.017 -0.004,0.004 -0.012,0.004 -0.017,0 -0.004,-0.005 -0.004,-0.013 0,-0.017z"/>
  <path class="fil0" d="M1.46 0.453c0.005,-0.005 0.012,-0.005 0.017,0 0.005,0.004 0.005,0.012 0,0.017 -0.005,0.004 -0.012,0.004 -0.017,0 -0.004,-0.005 -0.004,-0.013 0,-0.017z"/>
  <path class="fil0" d="M1.524 0.517c0.005,-0.005 0.012,-0.005 0.017,0 0.005,0.004 0.005,0.012 0,0.016 -0.005,0.005 -0.012,0.005 -0.017,0 -0.004,-0.004 -0.005,-0.012 0,-0.016z"/>
  <path class="fil0" d="M1.588 0.58c0.005,-0.004 0.012,-0.004 0.017,0.001 0.005,0.004 0.005,0.012 0,0.016 -0.005,0.005 -0.012,0.005 -0.017,0 -0.005,-0.004 -0.005,-0.012 0,-0.017z"/>
  <path class="fil0" d="M1.652 0.644c0.005,-0.004 0.012,-0.004 0.017,0 0.004,0.005 0.004,0.013 0,0.017 -0.005,0.005 -0.012,0.005 -0.017,0 -0.005,-0.004 -0.005,-0.012 0,-0.017z"/>
  <path class="fil0" d="M1.716 0.708c0.004,-0.004 0.012,-0.004 0.017,0 0.004,0.005 0.004,0.012 0,0.017 -0.005,0.005 -0.013,0.005 -0.017,0 -0.005,-0.005 -0.005,-0.012 0,-0.017z"/>
  <path class="fil0" d="M1.78 0.772c0.004,-0.005 0.012,-0.004 0.016,0 0.005,0.005 0.005,0.012 0.001,0.017 -0.005,0.005 -0.013,0.005 -0.017,0 -0.005,-0.005 -0.005,-0.012 0,-0.017z"/>
  <path class="fil0" d="M1.844 0.836c0.004,-0.005 0.012,-0.005 0.016,0 0.005,0.005 0.005,0.012 0,0.017 -0.004,0.005 -0.012,0.004 -0.016,0 -0.005,-0.005 -0.005,-0.012 0,-0.017z"/>
  <path class="fil0" d="M1.907 0.9c0.005,-0.005 0.013,-0.005 0.017,0 0.005,0.005 0.005,0.012 0,0.017 -0.004,0.004 -0.012,0.004 -0.017,0 -0.004,-0.005 -0.004,-0.012 0,-0.017z"/>
  <path class="fil0" d="M1.971 0.964c0.005,-0.005 0.012,-0.005 0.017,0 0.005,0.004 0.005,0.012 0,0.017 -0.004,0.004 -0.012,0.004 -0.017,0 -0.004,-0.005 -0.004,-0.013 0,-0.017z"/>
  <path class="fil0" d="M2.035 1.028c0.005,-0.005 0.012,-0.005 0.017,0 0.005,0.004 0.005,0.012 0,0.017 -0.005,0.004 -0.012,0.004 -0.017,-0.001 -0.004,-0.004 -0.004,-0.012 0,-0.016z"/>
  <path class="fil0" d="M2.099 1.092c0.005,-0.005 0.012,-0.005 0.017,0 0.005,0.004 0.005,0.012 0,0.016 -0.005,0.005 -0.012,0.005 -0.017,0 -0.005,-0.004 -0.005,-0.012 0,-0.016z"/>
  <path class="fil0" d="M2.163 1.155c0.005,-0.004 0.012,-0.004 0.017,0 0.004,0.005 0.004,0.013 0,0.017 -0.005,0.005 -0.012,0.005 -0.017,0 -0.005,-0.004 -0.005,-0.012 0,-0.017z"/>
  <path class="fil0" d="M2.227 1.219c0.004,-0.004 0.012,-0.004 0.017,0 0.004,0.005 0.004,0.013 0,0.017 -0.005,0.005 -0.012,0.005 -0.017,0 -0.005,-0.005 -0.005,-0.012 0,-0.017z"/>
  <path class="fil0" d="M2.291 1.283c0.004,-0.004 0.012,-0.004 0.017,0 0.004,0.005 0.004,0.012 0,0.017 -0.005,0.005 -0.013,0.005 -0.017,0 -0.005,-0.005 -0.005,-0.012 0,-0.017z"/>
  <path class="fil0" d="M2.355 1.347c0.004,-0.005 0.012,-0.005 0.016,0 0.005,0.005 0.005,0.012 0,0.017 -0.004,0.005 -0.012,0.005 -0.016,0 -0.005,-0.005 -0.005,-0.012 0,-0.017z"/>
  <path class="fil0" d="M1.205 0.325c0.004,-0.005 0.012,-0.005 0.017,0 0.004,0.005 0.004,0.012 0,0.017 -0.005,0.004 -0.013,0.004 -0.017,0 -0.005,-0.005 -0.005,-0.012 0,-0.017z"/>
  <path class="fil0" d="M1.269 0.389c0.004,-0.005 0.012,-0.005 0.016,0 0.005,0.005 0.005,0.012 0,0.017 -0.004,0.004 -0.012,0.004 -0.016,0 -0.005,-0.005 -0.005,-0.013 0,-0.017z"/>
  <path class="fil0" d="M1.332 0.453c0.005,-0.005 0.013,-0.005 0.017,0 0.005,0.004 0.005,0.012 0,0.017 -0.004,0.004 -0.012,0.004 -0.016,0 -0.005,-0.005 -0.005,-0.013 -0.001,-0.017z"/>
  <path class="fil0" d="M1.396 0.517c0.005,-0.005 0.013,-0.005 0.017,0 0.005,0.004 0.005,0.012 0,0.016 -0.004,0.005 -0.012,0.005 -0.017,0 -0.004,-0.004 -0.004,-0.012 0,-0.016z"/>
  <path class="fil0" d="M1.46 0.58c0.005,-0.004 0.012,-0.004 0.017,0.001 0.005,0.004 0.005,0.012 0,0.016 -0.004,0.005 -0.012,0.005 -0.017,0 -0.004,-0.004 -0.004,-0.012 0,-0.017z"/>
  <path class="fil0" d="M1.524 0.644c0.005,-0.004 0.012,-0.004 0.017,0 0.005,0.005 0.005,0.013 0,0.017 -0.005,0.005 -0.012,0.005 -0.017,0 -0.004,-0.004 -0.005,-0.012 0,-0.017z"/>
  <path class="fil0" d="M1.588 0.708c0.005,-0.004 0.012,-0.004 0.017,0 0.005,0.005 0.005,0.012 0,0.017 -0.005,0.005 -0.012,0.005 -0.017,0 -0.005,-0.005 -0.005,-0.012 0,-0.017z"/>
  <path class="fil0" d="M1.652 0.772c0.005,-0.005 0.012,-0.005 0.017,0 0.004,0.005 0.004,0.012 0,0.017 -0.005,0.005 -0.012,0.005 -0.017,0 -0.005,-0.005 -0.005,-0.012 0,-0.017z"/>
  <path class="fil0" d="M1.716 0.836c0.004,-0.005 0.012,-0.005 0.017,0 0.004,0.005 0.004,0.012 0,0.017 -0.005,0.005 -0.013,0.004 -0.017,0 -0.005,-0.005 -0.005,-0.012 0,-0.017z"/>
  <path class="fil0" d="M1.78 0.9c0.004,-0.005 0.012,-0.005 0.016,0 0.005,0.005 0.005,0.012 0.001,0.017 -0.005,0.004 -0.013,0.004 -0.017,0 -0.005,-0.005 -0.005,-0.012 0,-0.017z"/>
  <path class="fil0" d="M1.844 0.964c0.004,-0.005 0.012,-0.005 0.016,0 0.005,0.004 0.005,0.012 0,0.017 -0.004,0.004 -0.012,0.004 -0.016,0 -0.005,-0.005 -0.005,-0.013 0,-0.017z"/>
  <path class="fil0" d="M1.907 1.028c0.005,-0.005 0.013,-0.005 0.017,0 0.005,0.004 0.005,0.012 0,0.017 -0.004,0.004 -0.012,0.004 -0.017,-0.001 -0.004,-0.004 -0.004,-0.012 0,-0.016z"/>
  <path class="fil0" d="M1.971 1.092c0.005,-0.005 0.012,-0.005 0.017,0 0.005,0.004 0.005,0.012 0,0.016 -0.004,0.005 -0.012,0.005 -0.017,0 -0.004,-0.004 -0.004,-0.012 0,-0.016z"/>
  <path class="fil0" d="M2.035 1.155c0.005,-0.004 0.012,-0.004 0.017,0 0.005,0.005 0.005,0.013 0,0.017 -0.005,0.005 -0.012,0.005 -0.017,0 -0.004,-0.004 -0.004,-0.012 0,-0.017z"/>
  <path class="fil0" d="M2.099 1.219c0.005,-0.004 0.012,-0.004 0.017,0 0.005,0.005 0.005,0.013 0,0.017 -0.005,0.005 -0.012,0.005 -0.017,0 -0.005,-0.005 -0.005,-0.012 0,-0.017z"/>
  <path class="fil0" d="M2.163 1.283c0.005,-0.004 0.012,-0.004 0.017,0 0.004,0.005 0.004,0.012 0,0.017 -0.005,0.005 -0.012,0.005 -0.017,0 -0.005,-0.005 -0.005,-0.012 0,-0.017z"/>
  <path class="fil0" d="M2.227 1.347c0.004,-0.005 0.012,-0.005 0.017,0 0.004,0.005 0.004,0.012 0,0.017 -0.005,0.005 -0.012,0.005 -0.017,0 -0.005,-0.005 -0.005,-0.012 0,-0.017z"/>
  <path class="fil0" d="M2.291 1.411c0.004,-0.005 0.012,-0.005 0.017,0 0.004,0.005 0.004,0.012 0,0.017 -0.005,0.004 -0.013,0.004 -0.017,0 -0.005,-0.005 -0.005,-0.012 0,-0.017z"/>
  <path class="fil0" d="M2.355 1.475c0.004,-0.005 0.012,-0.005 0.016,0 0.005,0.005 0.005,0.012 0.001,0.017 -0.005,0.004 -0.013,0.004 -0.017,0 -0.005,-0.005 -0.005,-0.013 0,-0.017z"/>
  <path class="fil0" d="M1.141 0.389c0.004,-0.005 0.012,-0.005 0.017,0 0.004,0.005 0.004,0.012 0,0.017 -0.005,0.004 -0.012,0.004 -0.017,0 -0.005,-0.005 -0.005,-0.013 0,-0.017z"/>
  <path class="fil0" d="M1.205 0.453c0.004,-0.005 0.012,-0.005 0.017,0 0.004,0.004 0.004,0.012 0,0.017 -0.005,0.004 -0.013,0.004 -0.017,0 -0.005,-0.005 -0.005,-0.013 0,-0.017z"/>
  <path class="fil0" d="M1.269 0.517c0.004,-0.005 0.012,-0.005 0.016,0 0.005,0.004 0.005,0.012 0,0.016 -0.004,0.005 -0.012,0.005 -0.016,0 -0.005,-0.004 -0.005,-0.012 0,-0.016z"/>
  <path class="fil0" d="M1.332 0.58c0.005,-0.004 0.013,-0.004 0.017,0.001 0.005,0.004 0.005,0.012 0,0.016 -0.004,0.005 -0.012,0.005 -0.016,0 -0.005,-0.004 -0.005,-0.012 -0.001,-0.017z"/>
  <path class="fil0" d="M1.396 0.644c0.005,-0.004 0.013,-0.004 0.017,0 0.005,0.005 0.005,0.013 0,0.017 -0.004,0.005 -0.012,0.005 -0.017,0 -0.004,-0.004 -0.004,-0.012 0,-0.017z"/>
  <path class="fil0" d="M1.46 0.708c0.005,-0.004 0.012,-0.004 0.017,0 0.005,0.005 0.005,0.012 0,0.017 -0.004,0.005 -0.012,0.005 -0.017,0 -0.004,-0.005 -0.004,-0.012 0,-0.017z"/>
  <path class="fil0" d="M1.524 0.772c0.005,-0.005 0.012,-0.005 0.017,0 0.005,0.005 0.005,0.012 0,0.017 -0.005,0.005 -0.012,0.005 -0.017,0 -0.004,-0.005 -0.004,-0.012 0,-0.017z"/>
  <path class="fil0" d="M1.588 0.836c0.005,-0.005 0.012,-0.005 0.017,0 0.005,0.005 0.005,0.012 0,0.017 -0.005,0.005 -0.012,0.004 -0.017,0 -0.005,-0.005 -0.005,-0.012 0,-0.017z"/>
  <path class="fil0" d="M1.652 0.9c0.005,-0.005 0.012,-0.005 0.017,0 0.004,0.005 0.004,0.012 0,0.017 -0.005,0.004 -0.012,0.004 -0.017,0 -0.005,-0.005 -0.005,-0.013 0,-0.017z"/>
  <path class="fil0" d="M1.716 0.964c0.004,-0.005 0.012,-0.005 0.017,0 0.004,0.004 0.004,0.012 0,0.017 -0.005,0.004 -0.012,0.004 -0.017,0 -0.005,-0.005 -0.005,-0.013 0,-0.017z"/>
  <path class="fil0" d="M1.78 1.028c0.004,-0.005 0.012,-0.005 0.016,0 0.005,0.004 0.005,0.012 0.001,0.017 -0.005,0.004 -0.013,0.004 -0.017,-0.001 -0.005,-0.004 -0.005,-0.012 0,-0.016z"/>
  <path class="fil0" d="M1.844 1.092c0.004,-0.005 0.012,-0.005 0.016,0 0.005,0.004 0.005,0.012 0,0.016 -0.004,0.005 -0.012,0.005 -0.016,0 -0.005,-0.004 -0.005,-0.012 0,-0.016z"/>
  <path class="fil0" d="M1.907 1.155c0.005,-0.004 0.013,-0.004 0.017,0 0.005,0.005 0.005,0.013 0,0.017 -0.004,0.005 -0.012,0.005 -0.017,0 -0.004,-0.004 -0.004,-0.012 0,-0.017z"/>
  <path class="fil0" d="M1.971 1.219c0.005,-0.004 0.012,-0.004 0.017,0 0.005,0.005 0.005,0.013 0,0.017 -0.004,0.005 -0.012,0.005 -0.017,0 -0.004,-0.005 -0.004,-0.012 0,-0.017z"/>
  <path class="fil0" d="M2.035 1.283c0.005,-0.004 0.012,-0.004 0.017,0 0.005,0.005 0.005,0.012 0,0.017 -0.005,0.005 -0.012,0.005 -0.017,0 -0.004,-0.005 -0.004,-0.012 0,-0.017z"/>
  <path class="fil0" d="M2.099 1.347c0.005,-0.005 0.012,-0.005 0.017,0 0.005,0.005 0.005,0.012 0,0.017 -0.005,0.005 -0.012,0.005 -0.017,0 -0.005,-0.005 -0.005,-0.012 0,-0.017z"/>
  <path class="fil0" d="M2.163 1.411c0.005,-0.005 0.012,-0.005 0.017,0 0.004,0.005 0.004,0.012 0,0.017 -0.005,0.004 -0.012,0.004 -0.017,0 -0.005,-0.005 -0.005,-0.012 0,-0.017z"/>
  <path class="fil0" d="M2.227 1.475c0.004,-0.005 0.012,-0.005 0.017,0 0.004,0.005 0.004,0.012 0,0.017 -0.005,0.004 -0.012,0.004 -0.017,0 -0.005,-0.005 -0.005,-0.013 0,-0.017z"/>
  <path class="fil0" d="M2.291 1.539c0.004,-0.005 0.012,-0.005 0.017,0 0.004,0.004 0.004,0.012 0,0.017 -0.005,0.004 -0.013,0.004 -0.017,0 -0.005,-0.005 -0.005,-0.013 0,-0.017z"/>
  <path class="fil0" d="M2.355 1.603c0.004,-0.005 0.012,-0.005 0.016,0 0.005,0.004 0.005,0.012 0.001,0.016 -0.005,0.005 -0.013,0.005 -0.017,0 -0.005,-0.004 -0.005,-0.012 0,-0.016z"/>
  <path class="fil0" d="M1.077 0.453c0.005,-0.005 0.012,-0.005 0.017,0 0.004,0.004 0.004,0.012 0,0.017 -0.005,0.004 -0.012,0.004 -0.017,0 -0.005,-0.005 -0.005,-0.013 0,-0.017z"/>
  <path class="fil0" d="M1.141 0.517c0.004,-0.005 0.012,-0.005 0.017,0 0.004,0.004 0.004,0.012 0,0.016 -0.005,0.005 -0.012,0.005 -0.017,0 -0.005,-0.004 -0.005,-0.012 0,-0.016z"/>
  <path class="fil0" d="M1.205 0.58c0.004,-0.004 0.012,-0.004 0.017,0 0.004,0.005 0.004,0.013 0,0.017 -0.005,0.005 -0.013,0.005 -0.017,0 -0.005,-0.004 -0.005,-0.012 0,-0.017z"/>
  <path class="fil0" d="M1.269 0.644c0.004,-0.004 0.012,-0.004 0.016,0 0.005,0.005 0.005,0.013 0,0.017 -0.004,0.005 -0.012,0.005 -0.016,0 -0.005,-0.005 -0.005,-0.012 0,-0.017z"/>
  <path class="fil0" d="M1.332 0.708c0.005,-0.004 0.013,-0.004 0.017,0 0.005,0.005 0.005,0.012 0,0.017 -0.004,0.005 -0.012,0.005 -0.016,0 -0.005,-0.005 -0.005,-0.012 -0.001,-0.017z"/>
  <path class="fil0" d="M1.396 0.772c0.005,-0.005 0.013,-0.005 0.017,0 0.005,0.005 0.005,0.012 0,0.017 -0.004,0.005 -0.012,0.005 -0.017,0 -0.004,-0.005 -0.004,-0.012 0,-0.017z"/>
  <path class="fil0" d="M1.46 0.836c0.005,-0.005 0.012,-0.005 0.017,0 0.005,0.005 0.005,0.012 0,0.017 -0.004,0.004 -0.012,0.004 -0.017,0 -0.004,-0.005 -0.004,-0.012 0,-0.017z"/>
  <path class="fil0" d="M1.524 0.9c0.005,-0.005 0.012,-0.005 0.017,0 0.005,0.005 0.005,0.012 0,0.017 -0.005,0.004 -0.012,0.004 -0.017,0 -0.004,-0.005 -0.004,-0.013 0,-0.017z"/>
  <path class="fil0" d="M1.588 0.964c0.005,-0.005 0.012,-0.005 0.017,0 0.005,0.004 0.005,0.012 0,0.017 -0.005,0.004 -0.012,0.004 -0.017,0 -0.005,-0.005 -0.005,-0.013 0,-0.017z"/>
  <path class="fil0" d="M1.652 1.028c0.005,-0.005 0.012,-0.005 0.017,0 0.004,0.004 0.004,0.012 0,0.017 -0.005,0.004 -0.012,0.004 -0.017,-0.001 -0.005,-0.004 -0.005,-0.012 0,-0.016z"/>
  <path class="fil0" d="M1.716 1.092c0.004,-0.005 0.012,-0.005 0.017,0 0.004,0.004 0.004,0.012 0,0.016 -0.005,0.005 -0.012,0.005 -0.017,0 -0.005,-0.004 -0.005,-0.012 0,-0.016z"/>
  <path class="fil0" d="M1.78 1.155c0.004,-0.004 0.012,-0.004 0.017,0 0.004,0.005 0.004,0.013 0,0.017 -0.005,0.005 -0.013,0.005 -0.017,0 -0.005,-0.004 -0.005,-0.012 0,-0.017z"/>
  <path class="fil0" d="M1.844 1.219c0.004,-0.004 0.012,-0.004 0.016,0 0.005,0.005 0.005,0.013 0,0.017 -0.004,0.005 -0.012,0.005 -0.016,0 -0.005,-0.005 -0.005,-0.012 0,-0.017z"/>
  <path class="fil0" d="M1.907 1.283c0.005,-0.004 0.013,-0.004 0.017,0 0.005,0.005 0.005,0.012 0,0.017 -0.004,0.005 -0.012,0.005 -0.017,0 -0.004,-0.005 -0.004,-0.012 0,-0.017z"/>
  <path class="fil0" d="M1.971 1.347c0.005,-0.005 0.012,-0.005 0.017,0 0.005,0.005 0.005,0.012 0,0.017 -0.004,0.005 -0.012,0.005 -0.017,0 -0.004,-0.005 -0.004,-0.012 0,-0.017z"/>
  <path class="fil0" d="M2.035 1.411c0.005,-0.005 0.012,-0.005 0.017,0 0.005,0.005 0.005,0.012 0,0.017 -0.005,0.004 -0.012,0.004 -0.017,0 -0.004,-0.005 -0.004,-0.012 0,-0.017z"/>
  <path class="fil0" d="M2.099 1.475c0.005,-0.005 0.012,-0.005 0.017,0 0.005,0.005 0.005,0.012 0,0.017 -0.005,0.004 -0.012,0.004 -0.017,0 -0.005,-0.005 -0.005,-0.013 0,-0.017z"/>
  <path class="fil0" d="M2.163 1.539c0.005,-0.005 0.012,-0.005 0.017,0 0.004,0.004 0.004,0.012 0,0.017 -0.005,0.004 -0.012,0.004 -0.017,0 -0.005,-0.005 -0.005,-0.013 0,-0.017z"/>
  <path class="fil0" d="M2.227 1.603c0.004,-0.005 0.012,-0.005 0.017,0 0.004,0.004 0.004,0.012 0,0.016 -0.005,0.005 -0.012,0.005 -0.017,0 -0.005,-0.004 -0.005,-0.012 0,-0.016z"/>
  <path class="fil0" d="M2.291 1.666c0.004,-0.004 0.012,-0.004 0.017,0.001 0.004,0.004 0.004,0.012 0,0.016 -0.005,0.005 -0.013,0.005 -0.017,0 -0.005,-0.004 -0.005,-0.012 0,-0.017z"/>
  <path class="fil0" d="M2.355 1.73c0.004,-0.004 0.012,-0.004 0.016,0 0.005,0.005 0.005,0.013 0.001,0.017 -0.005,0.005 -0.013,0.005 -0.017,0 -0.005,-0.004 -0.005,-0.012 0,-0.017z"/>
  <path class="fil0" d="M1.013 0.517c0.005,-0.005 0.012,-0.005 0.017,0 0.005,0.004 0.005,0.012 0,0.016 -0.005,0.005 -0.012,0.005 -0.017,0 -0.005,-0.004 -0.005,-0.012 0,-0.016z"/>
  <path class="fil0" d="M1.077 0.58c0.005,-0.004 0.012,-0.004 0.017,0 0.004,0.005 0.004,0.013 0,0.017 -0.005,0.005 -0.012,0.005 -0.017,0 -0.005,-0.004 -0.005,-0.012 0,-0.017z"/>
  <path class="fil0" d="M1.141 0.644c0.004,-0.004 0.012,-0.004 0.017,0 0.004,0.005 0.004,0.013 0,0.017 -0.005,0.005 -0.012,0.005 -0.017,0 -0.005,-0.005 -0.005,-0.012 0,-0.017z"/>
  <path class="fil0" d="M1.205 0.708c0.004,-0.004 0.012,-0.004 0.017,0 0.004,0.005 0.004,0.012 0,0.017 -0.005,0.005 -0.013,0.005 -0.017,0 -0.005,-0.005 -0.005,-0.012 0,-0.017z"/>
  <path class="fil0" d="M1.269 0.772c0.004,-0.005 0.012,-0.005 0.016,0 0.005,0.005 0.005,0.012 0,0.017 -0.004,0.005 -0.012,0.005 -0.016,0 -0.005,-0.005 -0.005,-0.012 0,-0.017z"/>
  <path class="fil0" d="M1.332 0.836c0.005,-0.005 0.013,-0.005 0.017,0 0.005,0.005 0.005,0.012 0,0.017 -0.004,0.004 -0.012,0.004 -0.016,0 -0.005,-0.005 -0.005,-0.012 -0.001,-0.017z"/>
  <path class="fil0" d="M1.396 0.9c0.005,-0.005 0.013,-0.005 0.017,0 0.005,0.005 0.005,0.012 0,0.017 -0.004,0.004 -0.012,0.004 -0.017,0 -0.004,-0.005 -0.004,-0.013 0,-0.017z"/>
  <path class="fil0" d="M1.46 0.964c0.005,-0.005 0.012,-0.005 0.017,0 0.005,0.004 0.005,0.012 0,0.017 -0.004,0.004 -0.012,0.004 -0.017,0 -0.004,-0.005 -0.004,-0.013 0,-0.017z"/>
  <path class="fil0" d="M1.524 1.028c0.005,-0.005 0.012,-0.005 0.017,0 0.005,0.004 0.005,0.012 0,0.017 -0.005,0.004 -0.012,0.004 -0.017,-0.001 -0.004,-0.004 -0.004,-0.012 0,-0.016z"/>
  <path class="fil0" d="M1.588 1.092c0.005,-0.005 0.012,-0.005 0.017,0 0.005,0.004 0.005,0.012 0,0.016 -0.005,0.005 -0.012,0.005 -0.017,0 -0.005,-0.004 -0.005,-0.012 0,-0.016z"/>
  <path class="fil0" d="M1.652 1.155c0.005,-0.004 0.012,-0.004 0.017,0 0.004,0.005 0.004,0.013 0,0.017 -0.005,0.005 -0.012,0.005 -0.017,0 -0.005,-0.004 -0.005,-0.012 0,-0.017z"/>
  <path class="fil0" d="M1.716 1.219c0.004,-0.004 0.012,-0.004 0.017,0 0.004,0.005 0.004,0.013 0,0.017 -0.005,0.005 -0.012,0.005 -0.017,0 -0.005,-0.005 -0.005,-0.012 0,-0.017z"/>
  <path class="fil0" d="M1.78 1.283c0.004,-0.004 0.012,-0.004 0.017,0 0.004,0.005 0.004,0.012 0,0.017 -0.005,0.005 -0.013,0.005 -0.017,0 -0.005,-0.005 -0.005,-0.012 0,-0.017z"/>
  <path class="fil0" d="M1.844 1.347c0.004,-0.005 0.012,-0.005 0.016,0 0.005,0.005 0.005,0.012 0,0.017 -0.004,0.005 -0.012,0.005 -0.016,0 -0.005,-0.005 -0.005,-0.012 0,-0.017z"/>
  <path class="fil0" d="M1.907 1.411c0.005,-0.005 0.013,-0.005 0.017,0 0.005,0.005 0.005,0.012 0,0.017 -0.004,0.004 -0.012,0.004 -0.017,0 -0.004,-0.005 -0.004,-0.012 0,-0.017z"/>
  <path class="fil0" d="M1.971 1.475c0.005,-0.005 0.012,-0.005 0.017,0 0.005,0.005 0.005,0.012 0,0.017 -0.004,0.004 -0.012,0.004 -0.017,0 -0.004,-0.005 -0.004,-0.013 0,-0.017z"/>
  <path class="fil0" d="M2.035 1.539c0.005,-0.005 0.012,-0.005 0.017,0 0.005,0.004 0.005,0.012 0,0.017 -0.005,0.004 -0.012,0.004 -0.017,0 -0.004,-0.005 -0.004,-0.013 0,-0.017z"/>
  <path class="fil0" d="M2.099 1.603c0.005,-0.005 0.012,-0.005 0.017,0 0.005,0.004 0.005,0.012 0,0.016 -0.005,0.005 -0.012,0.005 -0.017,0 -0.005,-0.004 -0.005,-0.012 0,-0.016z"/>
  <path class="fil0" d="M2.163 1.666c0.005,-0.004 0.012,-0.004 0.017,0.001 0.004,0.004 0.004,0.012 0,0.016 -0.005,0.005 -0.012,0.005 -0.017,0 -0.005,-0.004 -0.005,-0.012 0,-0.017z"/>
  <path class="fil0" d="M2.227 1.73c0.004,-0.004 0.012,-0.004 0.017,0 0.004,0.005 0.004,0.013 0,0.017 -0.005,0.005 -0.012,0.005 -0.017,0 -0.005,-0.004 -0.005,-0.012 0,-0.017z"/>
  <path class="fil0" d="M2.291 1.794c0.004,-0.004 0.012,-0.004 0.017,0 0.004,0.005 0.004,0.012 0,0.017 -0.005,0.005 -0.013,0.005 -0.017,0 -0.005,-0.005 -0.005,-0.012 0,-0.017z"/>
  <path class="fil0" d="M2.355 1.858c0.004,-0.005 0.012,-0.004 0.016,0 0.005,0.005 0.005,0.012 0.001,0.017 -0.005,0.005 -0.013,0.005 -0.017,0 -0.005,-0.005 -0.005,-0.012 0,-0.017z"/>
  <path class="fil0" d="M0.949 0.58c0.005,-0.004 0.012,-0.004 0.017,0 0.005,0.005 0.005,0.013 0,0.017 -0.005,0.005 -0.012,0.005 -0.017,0 -0.004,-0.004 -0.004,-0.012 0,-0.017z"/>
  <path class="fil0" d="M1.013 0.644c0.005,-0.004 0.012,-0.004 0.017,0 0.005,0.005 0.005,0.013 0,0.017 -0.005,0.005 -0.012,0.005 -0.017,0 -0.005,-0.005 -0.005,-0.012 0,-0.017z"/>
  <path class="fil0" d="M1.077 0.708c0.005,-0.004 0.012,-0.004 0.017,0 0.004,0.005 0.004,0.012 0,0.017 -0.005,0.005 -0.012,0.005 -0.017,0 -0.005,-0.005 -0.005,-0.012 0,-0.017z"/>
  <path class="fil0" d="M1.141 0.772c0.004,-0.005 0.012,-0.005 0.017,0 0.004,0.005 0.004,0.012 0,0.017 -0.005,0.005 -0.012,0.005 -0.017,0 -0.005,-0.005 -0.005,-0.012 0,-0.017z"/>
  <path class="fil0" d="M1.205 0.836c0.004,-0.005 0.012,-0.005 0.017,0 0.004,0.005 0.004,0.012 0,0.017 -0.005,0.004 -0.013,0.004 -0.017,0 -0.005,-0.005 -0.005,-0.012 0,-0.017z"/>
  <path class="fil0" d="M1.269 0.9c0.004,-0.005 0.012,-0.005 0.016,0 0.005,0.005 0.005,0.012 0.001,0.017 -0.005,0.004 -0.013,0.004 -0.017,0 -0.005,-0.005 -0.005,-0.013 0,-0.017z"/>
  <path class="fil0" d="M1.332 0.964c0.005,-0.005 0.013,-0.005 0.017,0 0.005,0.004 0.005,0.012 0,0.017 -0.004,0.004 -0.012,0.004 -0.016,0 -0.005,-0.005 -0.005,-0.013 -0.001,-0.017z"/>
  <path class="fil0" d="M1.396 1.028c0.005,-0.005 0.013,-0.005 0.017,0 0.005,0.004 0.005,0.012 0,0.017 -0.004,0.004 -0.012,0.004 -0.017,-0.001 -0.004,-0.004 -0.004,-0.012 0,-0.016z"/>
  <path class="fil0" d="M1.46 1.092c0.005,-0.005 0.012,-0.005 0.017,0 0.005,0.004 0.005,0.012 0,0.016 -0.004,0.005 -0.012,0.005 -0.017,0 -0.004,-0.004 -0.004,-0.012 0,-0.016z"/>
  <path class="fil0" d="M1.524 1.155c0.005,-0.004 0.012,-0.004 0.017,0 0.005,0.005 0.005,0.013 0,0.017 -0.005,0.005 -0.012,0.005 -0.017,0 -0.004,-0.004 -0.004,-0.012 0,-0.017z"/>
  <path class="fil0" d="M1.588 1.219c0.005,-0.004 0.012,-0.004 0.017,0 0.005,0.005 0.005,0.013 0,0.017 -0.005,0.005 -0.012,0.005 -0.017,0 -0.005,-0.005 -0.005,-0.012 0,-0.017z"/>
  <path class="fil0" d="M1.652 1.283c0.005,-0.004 0.012,-0.004 0.017,0 0.004,0.005 0.004,0.012 0,0.017 -0.005,0.005 -0.012,0.005 -0.017,0 -0.005,-0.005 -0.005,-0.012 0,-0.017z"/>
  <path class="fil0" d="M1.716 1.347c0.004,-0.005 0.012,-0.005 0.017,0 0.004,0.005 0.004,0.012 0,0.017 -0.005,0.005 -0.012,0.005 -0.017,0 -0.005,-0.005 -0.005,-0.012 0,-0.017z"/>
  <path class="fil0" d="M1.78 1.411c0.004,-0.005 0.012,-0.005 0.017,0 0.004,0.005 0.004,0.012 0,0.017 -0.005,0.004 -0.013,0.004 -0.017,0 -0.005,-0.005 -0.005,-0.012 0,-0.017z"/>
  <path class="fil0" d="M1.844 1.475c0.004,-0.005 0.012,-0.005 0.016,0 0.005,0.005 0.005,0.012 0,0.017 -0.004,0.004 -0.012,0.004 -0.016,0 -0.005,-0.005 -0.005,-0.013 0,-0.017z"/>
  <path class="fil0" d="M1.907 1.539c0.005,-0.005 0.013,-0.005 0.017,0 0.005,0.004 0.005,0.012 0,0.017 -0.004,0.004 -0.012,0.004 -0.016,0 -0.005,-0.005 -0.005,-0.013 -0.001,-0.017z"/>
  <path class="fil0" d="M1.971 1.603c0.005,-0.005 0.013,-0.005 0.017,0 0.005,0.004 0.005,0.012 0,0.016 -0.004,0.005 -0.012,0.005 -0.017,0 -0.004,-0.004 -0.004,-0.012 0,-0.016z"/>
  <path class="fil0" d="M2.035 1.666c0.005,-0.004 0.012,-0.004 0.017,0.001 0.005,0.004 0.005,0.012 0,0.016 -0.005,0.005 -0.012,0.005 -0.017,0 -0.004,-0.004 -0.004,-0.012 0,-0.017z"/>
  <path class="fil0" d="M2.099 1.73c0.005,-0.004 0.012,-0.004 0.017,0 0.005,0.005 0.005,0.013 0,0.017 -0.005,0.005 -0.012,0.005 -0.017,0 -0.005,-0.004 -0.005,-0.012 0,-0.017z"/>
  <path class="fil0" d="M2.163 1.794c0.005,-0.004 0.012,-0.004 0.017,0 0.004,0.005 0.005,0.012 0,0.017 -0.005,0.005 -0.012,0.005 -0.017,0 -0.005,-0.005 -0.005,-0.012 0,-0.017z"/>
  <path class="fil0" d="M2.227 1.858c0.004,-0.005 0.012,-0.005 0.017,0 0.004,0.005 0.004,0.012 0,0.017 -0.005,0.005 -0.012,0.005 -0.017,0 -0.005,-0.005 -0.005,-0.012 0,-0.017z"/>
  <path class="fil0" d="M2.291 1.922c0.004,-0.005 0.012,-0.005 0.017,0 0.004,0.005 0.004,0.012 0,0.017 -0.005,0.005 -0.013,0.004 -0.017,0 -0.005,-0.005 -0.005,-0.012 0,-0.017z"/>
  <path class="fil0" d="M2.355 1.986c0.004,-0.005 0.012,-0.005 0.016,0 0.005,0.005 0.005,0.012 0.001,0.017 -0.005,0.004 -0.013,0.004 -0.017,0 -0.005,-0.005 -0.005,-0.012 0,-0.017z"/>
  <path class="fil0" d="M0.885 0.644c0.005,-0.004 0.012,-0.004 0.017,0 0.005,0.005 0.005,0.013 0,0.017 -0.004,0.005 -0.012,0.005 -0.017,0 -0.004,-0.005 -0.004,-0.012 0,-0.017z"/>
  <path class="fil0" d="M0.949 0.708c0.005,-0.004 0.012,-0.004 0.017,0 0.005,0.005 0.005,0.012 0,0.017 -0.005,0.005 -0.012,0.005 -0.017,0 -0.004,-0.005 -0.004,-0.012 0,-0.017z"/>
  <path class="fil0" d="M1.013 0.772c0.005,-0.005 0.012,-0.005 0.017,0 0.005,0.005 0.005,0.012 0,0.017 -0.005,0.005 -0.012,0.005 -0.017,0 -0.005,-0.005 -0.005,-0.012 0,-0.017z"/>
  <path class="fil0" d="M1.077 0.836c0.005,-0.005 0.012,-0.005 0.017,0 0.004,0.005 0.004,0.012 0,0.017 -0.005,0.004 -0.012,0.004 -0.017,0 -0.005,-0.005 -0.005,-0.012 0,-0.017z"/>
  <path class="fil0" d="M1.141 0.9c0.004,-0.005 0.012,-0.005 0.017,0 0.004,0.005 0.004,0.012 0,0.017 -0.005,0.004 -0.012,0.004 -0.017,0 -0.005,-0.005 -0.005,-0.013 0,-0.017z"/>
  <path class="fil0" d="M1.205 0.964c0.004,-0.005 0.012,-0.005 0.017,0 0.004,0.004 0.004,0.012 0,0.017 -0.005,0.004 -0.013,0.004 -0.017,0 -0.005,-0.005 -0.005,-0.013 0,-0.017z"/>
  <path class="fil0" d="M1.269 1.028c0.004,-0.005 0.012,-0.005 0.016,0 0.005,0.004 0.005,0.012 0.001,0.017 -0.005,0.004 -0.013,0.004 -0.017,-0.001 -0.005,-0.004 -0.005,-0.012 0,-0.016z"/>
  <path class="fil0" d="M1.333 1.091c0.004,-0.004 0.012,-0.004 0.016,0.001 0.005,0.004 0.005,0.012 0,0.016 -0.004,0.005 -0.012,0.005 -0.016,0 -0.005,-0.004 -0.005,-0.012 0,-0.017z"/>
  <path class="fil0" d="M1.396 1.155c0.005,-0.004 0.013,-0.004 0.017,0 0.005,0.005 0.005,0.013 0,0.017 -0.004,0.005 -0.012,0.005 -0.017,0 -0.004,-0.004 -0.004,-0.012 0,-0.017z"/>
  <path class="fil0" d="M1.46 1.219c0.005,-0.004 0.012,-0.004 0.017,0 0.005,0.005 0.005,0.013 0,0.017 -0.004,0.005 -0.012,0.005 -0.017,0 -0.004,-0.005 -0.004,-0.012 0,-0.017z"/>
  <path class="fil0" d="M1.524 1.283c0.005,-0.004 0.012,-0.004 0.017,0 0.005,0.005 0.005,0.012 0,0.017 -0.005,0.005 -0.012,0.005 -0.017,0 -0.004,-0.005 -0.004,-0.012 0,-0.017z"/>
  <path class="fil0" d="M1.588 1.347c0.005,-0.005 0.012,-0.005 0.017,0 0.005,0.005 0.005,0.012 0,0.017 -0.005,0.005 -0.012,0.005 -0.017,0 -0.005,-0.005 -0.005,-0.012 0,-0.017z"/>
  <path class="fil0" d="M1.652 1.411c0.005,-0.005 0.012,-0.005 0.017,0 0.004,0.005 0.004,0.012 0,0.017 -0.005,0.004 -0.012,0.004 -0.017,0 -0.005,-0.005 -0.005,-0.012 0,-0.017z"/>
  <path class="fil0" d="M1.716 1.475c0.004,-0.005 0.012,-0.005 0.017,0 0.004,0.005 0.004,0.012 0,0.017 -0.005,0.004 -0.012,0.004 -0.017,0 -0.005,-0.005 -0.005,-0.013 0,-0.017z"/>
  <path class="fil0" d="M1.78 1.539c0.004,-0.005 0.012,-0.005 0.017,0 0.004,0.004 0.004,0.012 0,0.017 -0.005,0.004 -0.013,0.004 -0.017,0 -0.005,-0.005 -0.005,-0.013 0,-0.017z"/>
  <path class="fil0" d="M1.844 1.603c0.004,-0.005 0.012,-0.005 0.016,0 0.005,0.004 0.005,0.012 0,0.016 -0.004,0.005 -0.012,0.005 -0.016,0 -0.005,-0.004 -0.005,-0.012 0,-0.016z"/>
  <path class="fil0" d="M1.907 1.666c0.005,-0.004 0.013,-0.004 0.017,0.001 0.005,0.004 0.005,0.012 0,0.016 -0.004,0.005 -0.012,0.005 -0.016,0 -0.005,-0.004 -0.005,-0.012 -0.001,-0.017z"/>
  <path class="fil0" d="M1.971 1.73c0.005,-0.004 0.013,-0.004 0.017,0 0.005,0.005 0.005,0.013 0,0.017 -0.004,0.005 -0.012,0.005 -0.017,0 -0.004,-0.004 -0.004,-0.012 0,-0.017z"/>
  <path class="fil0" d="M2.035 1.794c0.005,-0.004 0.012,-0.004 0.017,0 0.005,0.005 0.005,0.012 0,0.017 -0.005,0.005 -0.012,0.005 -0.017,0 -0.004,-0.005 -0.004,-0.012 0,-0.017z"/>
  <path class="fil0" d="M2.099 1.858c0.005,-0.005 0.012,-0.005 0.017,0 0.005,0.005 0.005,0.012 0,0.017 -0.005,0.005 -0.012,0.005 -0.017,0 -0.005,-0.005 -0.005,-0.012 0,-0.017z"/>
  <path class="fil0" d="M2.163 1.922c0.005,-0.005 0.012,-0.005 0.017,0 0.004,0.005 0.005,0.012 0,0.017 -0.005,0.005 -0.012,0.004 -0.017,0 -0.005,-0.005 -0.005,-0.012 0,-0.017z"/>
  <path class="fil0" d="M2.227 1.986c0.005,-0.005 0.012,-0.005 0.017,0 0.004,0.005 0.004,0.012 0,0.017 -0.005,0.004 -0.012,0.004 -0.017,0 -0.005,-0.005 -0.005,-0.012 0,-0.017z"/>
  <path class="fil0" d="M2.291 2.05c0.004,-0.005 0.012,-0.005 0.017,0 0.004,0.004 0.004,0.012 0,0.017 -0.005,0.004 -0.013,0.004 -0.017,0 -0.005,-0.005 -0.005,-0.013 0,-0.017z"/>
  <path class="fil0" d="M2.355 2.114c0.004,-0.005 0.012,-0.005 0.016,0 0.005,0.004 0.005,0.012 0.001,0.017 -0.005,0.004 -0.013,0.004 -0.017,-0.001 -0.005,-0.004 -0.005,-0.012 0,-0.016z"/>
  <circle class="fil1" transform="matrix(0.545102 -0.545102 0.548748 0.548748 0.829883 0.716635)" r="0.015"/>
  <path class="fil1" d="M0.885 0.772c0.005,-0.005 0.012,-0.005 0.017,0 0.005,0.005 0.005,0.012 0,0.017 -0.004,0.005 -0.012,0.005 -0.017,0 -0.004,-0.005 -0.004,-0.012 0,-0.017z"/>
  <path class="fil1" d="M0.949 0.836c0.005,-0.005 0.012,-0.005 0.017,0 0.005,0.005 0.005,0.012 0,0.017 -0.005,0.004 -0.012,0.004 -0.017,0 -0.004,-0.005 -0.004,-0.012 0,-0.017z"/>
  <path class="fil1" d="M1.013 0.9c0.005,-0.005 0.012,-0.005 0.017,0 0.005,0.005 0.005,0.012 0,0.017 -0.005,0.004 -0.012,0.004 -0.017,0 -0.005,-0.005 -0.005,-0.013 0,-0.017z"/>
  <path class="fil1" d="M1.077 0.964c0.005,-0.005 0.012,-0.005 0.017,0 0.004,0.004 0.004,0.012 0,0.017 -0.005,0.004 -0.012,0.004 -0.017,0 -0.005,-0.005 -0.005,-0.013 0,-0.017z"/>
  <path class="fil1" d="M1.141 1.028c0.004,-0.005 0.012,-0.005 0.017,0 0.004,0.004 0.004,0.012 0,0.016 -0.005,0.005 -0.012,0.005 -0.017,0 -0.005,-0.004 -0.005,-0.012 0,-0.016z"/>
  <path class="fil1" d="M1.205 1.091c0.004,-0.004 0.012,-0.004 0.017,0.001 0.004,0.004 0.004,0.012 0,0.016 -0.005,0.005 -0.013,0.005 -0.017,0 -0.005,-0.004 -0.005,-0.012 0,-0.017z"/>
  <path class="fil1" d="M1.269 1.155c0.004,-0.004 0.012,-0.004 0.016,0 0.005,0.005 0.005,0.013 0.001,0.017 -0.005,0.005 -0.013,0.005 -0.017,0 -0.005,-0.004 -0.005,-0.012 0,-0.017z"/>
  <path class="fil1" d="M1.333 1.219c0.004,-0.004 0.012,-0.004 0.016,0 0.005,0.005 0.005,0.013 0,0.017 -0.004,0.005 -0.012,0.005 -0.016,0 -0.005,-0.005 -0.005,-0.012 0,-0.017z"/>
  <path class="fil1" d="M1.396 1.283c0.005,-0.004 0.013,-0.004 0.017,0 0.005,0.005 0.005,0.012 0,0.017 -0.004,0.005 -0.012,0.005 -0.017,0 -0.004,-0.005 -0.004,-0.012 0,-0.017z"/>
  <path class="fil1" d="M1.46 1.347c0.005,-0.005 0.012,-0.005 0.017,0 0.005,0.005 0.005,0.012 0,0.017 -0.004,0.005 -0.012,0.005 -0.017,0 -0.004,-0.005 -0.004,-0.012 0,-0.017z"/>
  <path class="fil1" d="M1.524 1.411c0.005,-0.005 0.012,-0.005 0.017,0 0.005,0.005 0.005,0.012 0,0.017 -0.005,0.004 -0.012,0.004 -0.017,0 -0.004,-0.005 -0.004,-0.012 0,-0.017z"/>
  <path class="fil1" d="M1.588 1.475c0.005,-0.005 0.012,-0.005 0.017,0 0.005,0.005 0.005,0.012 0,0.017 -0.005,0.004 -0.012,0.004 -0.017,0 -0.005,-0.005 -0.005,-0.013 0,-0.017z"/>
  <path class="fil1" d="M1.652 1.539c0.005,-0.005 0.012,-0.005 0.017,0 0.004,0.004 0.004,0.012 0,0.017 -0.005,0.004 -0.012,0.004 -0.017,0 -0.005,-0.005 -0.005,-0.013 0,-0.017z"/>
  <path class="fil1" d="M1.716 1.603c0.004,-0.005 0.012,-0.005 0.017,0 0.004,0.004 0.004,0.012 0,0.016 -0.005,0.005 -0.012,0.005 -0.017,0 -0.005,-0.004 -0.005,-0.012 0,-0.016z"/>
  <path class="fil1" d="M1.78 1.666c0.004,-0.004 0.012,-0.004 0.017,0.001 0.004,0.004 0.004,0.012 0,0.016 -0.005,0.005 -0.013,0.005 -0.017,0 -0.005,-0.004 -0.005,-0.012 0,-0.017z"/>
  <path class="fil1" d="M1.844 1.73c0.004,-0.004 0.012,-0.004 0.016,0 0.005,0.005 0.005,0.013 0,0.017 -0.004,0.005 -0.012,0.005 -0.016,0 -0.005,-0.005 -0.005,-0.012 0,-0.017z"/>
  <path class="fil1" d="M1.907 1.794c0.005,-0.004 0.013,-0.004 0.017,0 0.005,0.005 0.005,0.012 0,0.017 -0.004,0.005 -0.012,0.005 -0.016,0 -0.005,-0.005 -0.005,-0.012 -0.001,-0.017z"/>
  <path class="fil1" d="M1.971 1.858c0.005,-0.005 0.013,-0.005 0.017,0 0.005,0.005 0.005,0.012 0,0.017 -0.004,0.005 -0.012,0.005 -0.017,0 -0.004,-0.005 -0.004,-0.012 0,-0.017z"/>
  <path class="fil1" d="M2.035 1.922c0.005,-0.005 0.012,-0.005 0.017,0 0.005,0.005 0.005,0.012 0,0.017 -0.005,0.004 -0.012,0.004 -0.017,0 -0.004,-0.005 -0.004,-0.012 0,-0.017z"/>
  <path class="fil1" d="M2.099 1.986c0.005,-0.005 0.012,-0.005 0.017,0 0.005,0.005 0.005,0.012 0,0.017 -0.005,0.004 -0.012,0.004 -0.017,0 -0.004,-0.005 -0.005,-0.013 0,-0.017z"/>
  <path class="fil1" d="M2.163 2.05c0.005,-0.005 0.012,-0.005 0.017,0 0.004,0.004 0.005,0.012 0,0.017 -0.005,0.004 -0.012,0.004 -0.017,0 -0.005,-0.005 -0.005,-0.013 0,-0.017z"/>
  <path class="fil1" d="M2.227 2.114c0.005,-0.005 0.012,-0.005 0.017,0 0.004,0.004 0.004,0.012 0,0.017 -0.005,0.004 -0.012,0.004 -0.017,-0.001 -0.005,-0.004 -0.005,-0.012 0,-0.016z"/>
  <path class="fil1" d="M2.291 2.178c0.004,-0.005 0.012,-0.005 0.017,0 0.004,0.004 0.004,0.012 0,0.016 -0.005,0.005 -0.013,0.005 -0.017,0 -0.005,-0.004 -0.005,-0.012 0,-0.016z"/>
  <path class="fil1" d="M2.355 2.241c0.004,-0.004 0.012,-0.004 0.016,0 0.005,0.005 0.005,0.013 0.001,0.017 -0.005,0.005 -0.013,0.005 -0.017,0 -0.005,-0.004 -0.005,-0.012 0,-0.017z"/>
  <path class="fil0" d="M1.396 0.006c0.005,-0.005 0.013,-0.005 0.017,0 0.005,0.004 0.005,0.012 0,0.016 -0.004,0.005 -0.012,0.005 -0.017,0 -0.004,-0.004 -0.004,-0.012 0,-0.016z"/>
  <path class="fil0" d="M1.269 0.006c0.004,-0.005 0.012,-0.005 0.016,0 0.005,0.004 0.005,0.012 0,0.016 -0.004,0.005 -0.012,0.005 -0.016,0 -0.005,-0.004 -0.005,-0.012 0,-0.016z"/>
  <path class="fil0" d="M1.332 0.069c0.005,-0.004 0.013,-0.004 0.017,0 0.005,0.005 0.005,0.013 0,0.017 -0.004,0.005 -0.012,0.005 -0.016,0 -0.005,-0.004 -0.005,-0.012 -0.001,-0.017z"/>
  <path class="fil0" d="M1.141 0.006c0.004,-0.005 0.012,-0.005 0.017,0 0.004,0.004 0.004,0.012 0,0.016 -0.005,0.005 -0.012,0.005 -0.017,0 -0.005,-0.004 -0.005,-0.012 0,-0.016z"/>
  <path class="fil0" d="M1.205 0.069c0.004,-0.004 0.012,-0.004 0.017,0 0.004,0.005 0.004,0.013 0,0.017 -0.005,0.005 -0.013,0.005 -0.017,0 -0.005,-0.004 -0.005,-0.012 0,-0.017z"/>
  <path class="fil0" d="M1.269 0.133c0.004,-0.004 0.012,-0.004 0.016,0 0.005,0.005 0.005,0.013 0,0.017 -0.004,0.005 -0.012,0.005 -0.016,0 -0.005,-0.005 -0.005,-0.012 0,-0.017z"/>
  <path class="fil0" d="M1.013 0.006c0.005,-0.005 0.012,-0.005 0.017,0 0.005,0.004 0.005,0.012 0,0.016 -0.005,0.005 -0.012,0.005 -0.017,0 -0.005,-0.004 -0.005,-0.012 0,-0.016z"/>
  <path class="fil0" d="M1.077 0.069c0.005,-0.004 0.012,-0.004 0.017,0 0.004,0.005 0.004,0.013 0,0.017 -0.005,0.005 -0.012,0.005 -0.017,0 -0.005,-0.004 -0.005,-0.012 0,-0.017z"/>
  <path class="fil0" d="M1.141 0.133c0.004,-0.004 0.012,-0.004 0.017,0 0.004,0.005 0.004,0.013 0,0.017 -0.005,0.005 -0.012,0.005 -0.017,0 -0.005,-0.005 -0.005,-0.012 0,-0.017z"/>
  <path class="fil0" d="M1.205 0.197c0.004,-0.004 0.012,-0.004 0.017,0 0.004,0.005 0.004,0.012 0,0.017 -0.005,0.005 -0.013,0.005 -0.017,0 -0.005,-0.005 -0.005,-0.012 0,-0.017z"/>
  <path class="fil0" d="M0.885 0.006c0.005,-0.005 0.012,-0.005 0.017,0 0.005,0.004 0.005,0.012 0,0.016 -0.004,0.005 -0.012,0.005 -0.017,0 -0.004,-0.004 -0.004,-0.012 0,-0.016z"/>
  <path class="fil0" d="M0.949 0.069c0.005,-0.004 0.012,-0.004 0.017,0 0.005,0.005 0.005,0.013 0,0.017 -0.005,0.005 -0.012,0.005 -0.017,0 -0.004,-0.004 -0.004,-0.012 0,-0.017z"/>
  <path class="fil0" d="M1.013 0.133c0.005,-0.004 0.012,-0.004 0.017,0 0.005,0.005 0.005,0.013 0,0.017 -0.005,0.005 -0.012,0.005 -0.017,0 -0.005,-0.005 -0.005,-0.012 0,-0.017z"/>
  <path class="fil0" d="M1.077 0.197c0.005,-0.004 0.012,-0.004 0.017,0 0.004,0.005 0.004,0.012 0,0.017 -0.005,0.005 -0.012,0.005 -0.017,0 -0.005,-0.005 -0.005,-0.012 0,-0.017z"/>
  <path class="fil0" d="M1.141 0.261c0.004,-0.005 0.012,-0.005 0.017,0 0.004,0.005 0.004,0.012 0,0.017 -0.005,0.005 -0.012,0.005 -0.017,0 -0.005,-0.005 -0.005,-0.012 0,-0.017z"/>
  <path class="fil0" d="M0.758 0.005c0.004,-0.004 0.012,-0.004 0.016,0.001 0.005,0.004 0.005,0.012 0,0.016 -0.004,0.005 -0.012,0.005 -0.016,0 -0.005,-0.004 -0.005,-0.012 0,-0.017z"/>
  <path class="fil0" d="M0.821 0.069c0.005,-0.004 0.013,-0.004 0.017,0 0.005,0.005 0.005,0.013 0,0.017 -0.004,0.005 -0.012,0.005 -0.017,0 -0.004,-0.004 -0.004,-0.012 0,-0.017z"/>
  <path class="fil0" d="M0.885 0.133c0.005,-0.004 0.012,-0.004 0.017,0 0.005,0.005 0.005,0.013 0,0.017 -0.004,0.005 -0.012,0.005 -0.017,0 -0.004,-0.005 -0.004,-0.012 0,-0.017z"/>
  <path class="fil0" d="M0.949 0.197c0.005,-0.004 0.012,-0.004 0.017,0 0.005,0.005 0.005,0.012 0,0.017 -0.005,0.005 -0.012,0.005 -0.017,0 -0.004,-0.005 -0.004,-0.012 0,-0.017z"/>
  <path class="fil0" d="M1.013 0.261c0.005,-0.005 0.012,-0.005 0.017,0 0.005,0.005 0.005,0.012 0,0.017 -0.005,0.005 -0.012,0.005 -0.017,0 -0.005,-0.005 -0.005,-0.012 0,-0.017z"/>
  <path class="fil0" d="M1.077 0.325c0.005,-0.005 0.012,-0.005 0.017,0 0.004,0.005 0.004,0.012 0,0.017 -0.005,0.004 -0.012,0.004 -0.017,0 -0.005,-0.005 -0.005,-0.012 0,-0.017z"/>
  <path class="fil0" d="M0.63 0.005c0.004,-0.004 0.012,-0.004 0.017,0.001 0.004,0.004 0.004,0.012 0,0.016 -0.005,0.005 -0.013,0.005 -0.017,0 -0.005,-0.004 -0.005,-0.012 0,-0.017z"/>
  <path class="fil0" d="M0.694 0.069c0.004,-0.004 0.012,-0.004 0.016,0 0.005,0.005 0.005,0.013 0.001,0.017 -0.005,0.005 -0.013,0.005 -0.017,0 -0.005,-0.004 -0.005,-0.012 0,-0.017z"/>
  <path class="fil0" d="M0.758 0.133c0.004,-0.004 0.012,-0.004 0.016,0 0.005,0.005 0.005,0.013 0,0.017 -0.004,0.005 -0.012,0.005 -0.016,0 -0.005,-0.005 -0.005,-0.012 0,-0.017z"/>
  <path class="fil0" d="M0.821 0.197c0.005,-0.004 0.013,-0.004 0.017,0 0.005,0.005 0.005,0.012 0,0.017 -0.004,0.005 -0.012,0.005 -0.017,0 -0.004,-0.005 -0.004,-0.012 0,-0.017z"/>
  <path class="fil0" d="M0.885 0.261c0.005,-0.005 0.012,-0.005 0.017,0 0.005,0.005 0.005,0.012 0,0.017 -0.004,0.005 -0.012,0.005 -0.017,0 -0.004,-0.005 -0.004,-0.012 0,-0.017z"/>
  <path class="fil0" d="M0.949 0.325c0.005,-0.005 0.012,-0.005 0.017,0 0.005,0.005 0.005,0.012 0,0.017 -0.005,0.004 -0.012,0.004 -0.017,0 -0.004,-0.005 -0.004,-0.012 0,-0.017z"/>
  <path class="fil0" d="M1.013 0.389c0.005,-0.005 0.012,-0.005 0.017,0 0.005,0.005 0.005,0.012 0,0.017 -0.005,0.004 -0.012,0.004 -0.017,0 -0.005,-0.005 -0.005,-0.013 0,-0.017z"/>
  <path class="fil0" d="M0.502 0.005c0.005,-0.004 0.012,-0.004 0.017,0.001 0.005,0.004 0.005,0.012 0,0.016 -0.005,0.005 -0.012,0.005 -0.017,0 -0.005,-0.004 -0.005,-0.012 0,-0.017z"/>
  <path class="fil0" d="M0.566 0.069c0.005,-0.004 0.012,-0.004 0.017,0 0.004,0.005 0.004,0.013 0,0.017 -0.005,0.005 -0.012,0.005 -0.017,0 -0.005,-0.004 -0.005,-0.012 0,-0.017z"/>
  <path class="fil0" d="M0.63 0.133c0.004,-0.004 0.012,-0.004 0.017,0 0.004,0.005 0.004,0.013 0,0.017 -0.005,0.005 -0.013,0.005 -0.017,0 -0.005,-0.005 -0.005,-0.012 0,-0.017z"/>
  <path class="fil0" d="M0.694 0.197c0.004,-0.004 0.012,-0.004 0.016,0 0.005,0.005 0.005,0.012 0.001,0.017 -0.005,0.005 -0.013,0.005 -0.017,0 -0.005,-0.005 -0.005,-0.012 0,-0.017z"/>
  <path class="fil0" d="M0.758 0.261c0.004,-0.005 0.012,-0.005 0.016,0 0.005,0.005 0.005,0.012 0,0.017 -0.004,0.005 -0.012,0.005 -0.016,0 -0.005,-0.005 -0.005,-0.012 0,-0.017z"/>
  <path class="fil0" d="M0.821 0.325c0.005,-0.005 0.013,-0.005 0.017,0 0.005,0.005 0.005,0.012 0,0.017 -0.004,0.004 -0.012,0.004 -0.017,0 -0.004,-0.005 -0.004,-0.012 0,-0.017z"/>
  <path class="fil0" d="M0.885 0.389c0.005,-0.005 0.012,-0.005 0.017,0 0.005,0.005 0.005,0.012 0,0.017 -0.004,0.004 -0.012,0.004 -0.017,0 -0.004,-0.005 -0.004,-0.013 0,-0.017z"/>
  <path class="fil0" d="M0.949 0.453c0.005,-0.005 0.012,-0.005 0.017,0 0.005,0.004 0.005,0.012 0,0.017 -0.005,0.004 -0.012,0.004 -0.017,0 -0.004,-0.005 -0.004,-0.013 0,-0.017z"/>
  <path class="fil0" d="M0.374 0.005c0.005,-0.004 0.012,-0.004 0.017,0.001 0.005,0.004 0.005,0.012 0,0.016 -0.004,0.005 -0.012,0.005 -0.017,0 -0.004,-0.004 -0.004,-0.012 0,-0.017z"/>
  <path class="fil0" d="M0.438 0.069c0.005,-0.004 0.012,-0.004 0.017,0 0.005,0.005 0.005,0.013 0,0.017 -0.005,0.005 -0.012,0.005 -0.017,0 -0.004,-0.004 -0.005,-0.012 0,-0.017z"/>
  <path class="fil0" d="M0.502 0.133c0.005,-0.004 0.012,-0.004 0.017,0 0.005,0.005 0.005,0.013 0,0.017 -0.005,0.005 -0.012,0.005 -0.017,0 -0.005,-0.005 -0.005,-0.012 0,-0.017z"/>
  <path class="fil0" d="M0.566 0.197c0.005,-0.004 0.012,-0.004 0.017,0 0.004,0.005 0.004,0.012 0,0.017 -0.005,0.005 -0.012,0.005 -0.017,0 -0.005,-0.005 -0.005,-0.012 0,-0.017z"/>
  <path class="fil0" d="M0.63 0.261c0.004,-0.005 0.012,-0.005 0.017,0 0.004,0.005 0.004,0.012 0,0.017 -0.005,0.005 -0.013,0.005 -0.017,0 -0.005,-0.005 -0.005,-0.012 0,-0.017z"/>
  <path class="fil0" d="M0.694 0.325c0.004,-0.005 0.012,-0.005 0.016,0 0.005,0.005 0.005,0.012 0.001,0.017 -0.005,0.004 -0.013,0.004 -0.017,0 -0.005,-0.005 -0.005,-0.012 0,-0.017z"/>
  <path class="fil0" d="M0.758 0.389c0.004,-0.005 0.012,-0.005 0.016,0 0.005,0.005 0.005,0.012 0,0.017 -0.004,0.004 -0.012,0.004 -0.016,0 -0.005,-0.005 -0.005,-0.013 0,-0.017z"/>
  <path class="fil0" d="M0.821 0.453c0.005,-0.005 0.013,-0.005 0.017,0 0.005,0.004 0.005,0.012 0,0.017 -0.004,0.004 -0.012,0.004 -0.017,-0.001 -0.004,-0.004 -0.004,-0.012 0,-0.016z"/>
  <path class="fil0" d="M0.885 0.517c0.005,-0.005 0.012,-0.005 0.017,0 0.005,0.004 0.005,0.012 0,0.016 -0.004,0.005 -0.012,0.005 -0.017,0 -0.004,-0.004 -0.004,-0.012 0,-0.016z"/>
  <path class="fil0" d="M0.246 0.005c0.005,-0.004 0.013,-0.004 0.017,0.001 0.005,0.004 0.005,0.012 0,0.016 -0.004,0.005 -0.012,0.005 -0.016,0 -0.005,-0.004 -0.005,-0.012 -0.001,-0.017z"/>
  <path class="fil0" d="M0.31 0.069c0.005,-0.004 0.013,-0.004 0.017,0 0.005,0.005 0.005,0.013 0,0.017 -0.004,0.005 -0.012,0.005 -0.017,0 -0.004,-0.004 -0.004,-0.012 0,-0.017z"/>
  <path class="fil0" d="M0.374 0.133c0.005,-0.004 0.012,-0.004 0.017,0 0.005,0.005 0.005,0.013 0,0.017 -0.004,0.005 -0.012,0.005 -0.017,0 -0.004,-0.005 -0.004,-0.012 0,-0.017z"/>
  <path class="fil0" d="M0.438 0.197c0.005,-0.005 0.012,-0.004 0.017,0 0.005,0.005 0.005,0.012 0,0.017 -0.005,0.005 -0.012,0.005 -0.017,0 -0.004,-0.005 -0.004,-0.012 0,-0.017z"/>
  <path class="fil0" d="M0.502 0.261c0.005,-0.005 0.012,-0.005 0.017,0 0.005,0.005 0.005,0.012 0,0.017 -0.005,0.005 -0.012,0.005 -0.017,0 -0.005,-0.005 -0.005,-0.012 0,-0.017z"/>
  <path class="fil0" d="M0.566 0.325c0.005,-0.005 0.012,-0.005 0.017,0 0.004,0.005 0.004,0.012 0,0.017 -0.005,0.004 -0.012,0.004 -0.017,0 -0.005,-0.005 -0.005,-0.012 0,-0.017z"/>
  <path class="fil0" d="M0.63 0.389c0.004,-0.005 0.012,-0.005 0.017,0 0.004,0.005 0.004,0.012 0,0.017 -0.005,0.004 -0.012,0.004 -0.017,0 -0.005,-0.005 -0.005,-0.013 0,-0.017z"/>
  <path class="fil0" d="M0.694 0.453c0.004,-0.005 0.012,-0.005 0.016,0 0.005,0.004 0.005,0.012 0.001,0.017 -0.005,0.004 -0.013,0.004 -0.017,-0.001 -0.005,-0.004 -0.005,-0.012 0,-0.016z"/>
  <path class="fil0" d="M0.758 0.517c0.004,-0.005 0.012,-0.005 0.016,0 0.005,0.004 0.005,0.012 0,0.016 -0.004,0.005 -0.012,0.005 -0.016,0 -0.005,-0.004 -0.005,-0.012 0,-0.016z"/>
  <path class="fil0" d="M0.821 0.58c0.005,-0.004 0.013,-0.004 0.017,0 0.005,0.005 0.005,0.013 0,0.017 -0.004,0.005 -0.012,0.005 -0.017,0 -0.004,-0.004 -0.004,-0.012 0,-0.017z"/>
  <path class="fil1" d="M0.119 0.005c0.004,-0.004 0.012,-0.004 0.017,0.001 0.004,0.004 0.004,0.012 0,0.016 -0.005,0.005 -0.013,0.005 -0.017,0 -0.005,-0.004 -0.005,-0.012 0,-0.017z"/>
  <path class="fil1" d="M0.183 0.069c0.004,-0.004 0.012,-0.004 0.016,0 0.005,0.005 0.005,0.013 0,0.017 -0.004,0.005 -0.012,0.005 -0.016,0 -0.005,-0.004 -0.005,-0.012 0,-0.017z"/>
  <path class="fil1" d="M0.246 0.133c0.005,-0.004 0.013,-0.004 0.017,0 0.005,0.005 0.005,0.012 0,0.017 -0.004,0.005 -0.012,0.005 -0.016,0 -0.005,-0.005 -0.005,-0.012 -0.001,-0.017z"/>
  <path class="fil1" d="M0.31 0.197c0.005,-0.005 0.013,-0.004 0.017,0 0.005,0.005 0.005,0.012 0,0.017 -0.004,0.005 -0.012,0.005 -0.017,0 -0.004,-0.005 -0.004,-0.012 0,-0.017z"/>
  <path class="fil1" d="M0.374 0.261c0.005,-0.005 0.012,-0.005 0.017,0 0.005,0.005 0.005,0.012 0,0.017 -0.004,0.005 -0.012,0.005 -0.017,0 -0.004,-0.005 -0.004,-0.012 0,-0.017z"/>
  <path class="fil1" d="M0.438 0.325c0.005,-0.005 0.012,-0.005 0.017,0 0.005,0.005 0.005,0.012 0,0.017 -0.005,0.004 -0.012,0.004 -0.017,0 -0.004,-0.005 -0.004,-0.012 0,-0.017z"/>
  <path class="fil1" d="M0.502 0.389c0.005,-0.005 0.012,-0.005 0.017,0 0.005,0.004 0.005,0.012 0,0.017 -0.005,0.004 -0.012,0.004 -0.017,0 -0.005,-0.005 -0.005,-0.013 0,-0.017z"/>
  <path class="fil1" d="M0.566 0.453c0.005,-0.005 0.012,-0.005 0.017,0 0.004,0.004 0.004,0.012 0,0.017 -0.005,0.004 -0.012,0.004 -0.017,-0.001 -0.005,-0.004 -0.005,-0.012 0,-0.016z"/>
  <path class="fil1" d="M0.63 0.517c0.004,-0.005 0.012,-0.005 0.017,0 0.004,0.004 0.004,0.012 0,0.016 -0.005,0.005 -0.012,0.005 -0.017,0 -0.005,-0.004 -0.005,-0.012 0,-0.016z"/>
  <path class="fil1" d="M0.694 0.58c0.004,-0.004 0.012,-0.004 0.017,0 0.004,0.005 0.004,0.013 0,0.017 -0.005,0.005 -0.013,0.005 -0.017,0 -0.005,-0.004 -0.005,-0.012 0,-0.017z"/>
  <circle class="fil1" transform="matrix(0.545102 -0.545102 0.548748 0.548748 0.766001 0.652753)" r="0.015"/>
  <line class="fil2 str0" x1="2.394" y1="2.359" x2="0.038" y2= "0.002" />
  <line class="fil2 str0" x1="2.394" y1="2.394" x2="0.002" y2= "0.002" />
 </g>
</svg>
