<?xml version="1.0" encoding="UTF-8"?>
<!DOCTYPE svg PUBLIC "-//W3C//DTD SVG 1.1//EN" "http://www.w3.org/Graphics/SVG/1.1/DTD/svg11.dtd">
<!-- Creator: CorelDRAW 2021 (64-Bit) -->
<svg xmlns="http://www.w3.org/2000/svg" xml:space="preserve" width="308px" height="308px" version="1.1" style="shape-rendering:geometricPrecision; text-rendering:geometricPrecision; image-rendering:optimizeQuality; fill-rule:evenodd; clip-rule:evenodd"
viewBox="0 0 0.645 0.645"
 xmlns:xlink="http://www.w3.org/1999/xlink"
 xmlns:xodm="http://www.corel.com/coreldraw/odm/2003">
 <defs>
  <style type="text/css">
   <![CDATA[
    .fil0 {fill:#52585F}
   ]]>
  </style>
 </defs>
 <g id="Слой_x0020_1">
  <metadata id="CorelCorpID_0Corel-Layer"/>
  <path class="fil0" d="M0.044 0.643c-0.003,0.002 -0.006,0.002 -0.009,0 -0.002,-0.003 -0.002,-0.007 0,-0.009 0.003,-0.002 0.006,-0.002 0.009,0 0.002,0.002 0.002,0.006 0,0.009z"/>
  <path class="fil0" d="M0.011 0.61c-0.003,0.002 -0.007,0.002 -0.009,0 -0.003,-0.003 -0.003,-0.007 0,-0.009 0.002,-0.003 0.006,-0.003 0.009,0 0.002,0.002 0.002,0.006 0,0.009z"/>
  <path class="fil0" d="M0.11 0.643c-0.002,0.002 -0.006,0.002 -0.008,0 -0.003,-0.003 -0.003,-0.007 0,-0.009 0.002,-0.002 0.006,-0.002 0.008,0 0.003,0.002 0.003,0.006 0,0.009z"/>
  <path class="fil0" d="M0.077 0.61c-0.002,0.002 -0.006,0.002 -0.009,0 -0.002,-0.003 -0.002,-0.007 0,-0.009 0.003,-0.003 0.007,-0.003 0.009,0 0.003,0.002 0.003,0.006 0,0.009z"/>
  <path class="fil0" d="M0.044 0.576c-0.003,0.003 -0.006,0.003 -0.009,0 -0.002,-0.002 -0.002,-0.006 0,-0.009 0.003,-0.002 0.006,-0.002 0.009,0 0.002,0.003 0.002,0.007 0,0.009z"/>
  <path class="fil0" d="M0.011 0.543c-0.003,0.002 -0.007,0.002 -0.009,0 -0.003,-0.002 -0.003,-0.006 0,-0.009 0.002,-0.002 0.006,-0.002 0.009,0 0.002,0.003 0.002,0.007 0,0.009z"/>
  <path class="fil0" d="M0.177 0.643c-0.002,0.002 -0.006,0.002 -0.009,0 -0.002,-0.003 -0.002,-0.007 0,-0.009 0.003,-0.002 0.007,-0.002 0.009,0 0.002,0.002 0.002,0.006 0,0.009z"/>
  <path class="fil0" d="M0.144 0.61c-0.003,0.002 -0.007,0.002 -0.009,0 -0.002,-0.003 -0.002,-0.007 0,-0.009 0.002,-0.003 0.006,-0.003 0.009,0 0.002,0.002 0.002,0.006 0,0.009z"/>
  <path class="fil0" d="M0.11 0.576c-0.002,0.003 -0.006,0.003 -0.008,0 -0.003,-0.002 -0.003,-0.006 0,-0.009 0.002,-0.002 0.006,-0.002 0.008,0.001 0.003,0.002 0.003,0.006 0,0.008z"/>
  <path class="fil0" d="M0.077 0.543c-0.002,0.002 -0.006,0.002 -0.009,0 -0.002,-0.002 -0.002,-0.006 0,-0.009 0.003,-0.002 0.007,-0.002 0.009,0 0.003,0.003 0.003,0.007 0,0.009z"/>
  <path class="fil0" d="M0.044 0.51c-0.003,0.002 -0.006,0.002 -0.009,0 -0.002,-0.003 -0.002,-0.007 0,-0.009 0.003,-0.002 0.006,-0.002 0.009,0 0.002,0.002 0.002,0.006 0,0.009z"/>
  <path class="fil0" d="M0.011 0.476c-0.003,0.003 -0.007,0.003 -0.009,0 -0.003,-0.002 -0.003,-0.006 0,-0.008 0.002,-0.003 0.006,-0.003 0.009,0 0.002,0.002 0.002,0.006 0,0.008z"/>
  <path class="fil0" d="M0.244 0.643c-0.003,0.002 -0.007,0.002 -0.009,0 -0.003,-0.003 -0.003,-0.007 0,-0.009 0.002,-0.002 0.006,-0.002 0.009,0 0.002,0.002 0.002,0.006 0,0.009z"/>
  <path class="fil0" d="M0.21 0.61c-0.002,0.002 -0.006,0.002 -0.008,0 -0.003,-0.003 -0.003,-0.007 -0.001,-0.009 0.003,-0.003 0.007,-0.003 0.009,0 0.003,0.002 0.003,0.006 0,0.009z"/>
  <path class="fil0" d="M0.177 0.576c-0.002,0.003 -0.006,0.003 -0.009,0 -0.002,-0.002 -0.002,-0.006 0,-0.009 0.003,-0.002 0.007,-0.002 0.009,0.001 0.002,0.002 0.002,0.006 0,0.008z"/>
  <path class="fil0" d="M0.144 0.543c-0.003,0.002 -0.007,0.002 -0.009,0 -0.002,-0.002 -0.002,-0.006 0,-0.009 0.002,-0.002 0.006,-0.002 0.009,0 0.002,0.003 0.002,0.007 0,0.009z"/>
  <path class="fil0" d="M0.11 0.51c-0.002,0.002 -0.006,0.002 -0.008,0 -0.003,-0.003 -0.003,-0.007 0,-0.009 0.002,-0.002 0.006,-0.002 0.008,0 0.003,0.002 0.003,0.006 0,0.009z"/>
  <path class="fil0" d="M0.077 0.476c-0.002,0.003 -0.006,0.003 -0.009,0 -0.002,-0.002 -0.002,-0.006 0,-0.008 0.003,-0.003 0.007,-0.003 0.009,0 0.003,0.002 0.003,0.006 0,0.008z"/>
  <path class="fil0" d="M0.044 0.443c-0.003,0.003 -0.006,0.003 -0.009,0 -0.002,-0.002 -0.002,-0.006 0,-0.009 0.003,-0.002 0.006,-0.002 0.009,0 0.002,0.003 0.002,0.007 0,0.009z"/>
  <path class="fil0" d="M0.011 0.41c-0.003,0.002 -0.007,0.002 -0.009,0 -0.003,-0.003 -0.003,-0.006 0,-0.009 0.002,-0.002 0.006,-0.002 0.009,0 0.002,0.003 0.002,0.006 0,0.009z"/>
  <path class="fil0" d="M0.31 0.643c-0.002,0.002 -0.006,0.002 -0.009,0 -0.002,-0.003 -0.002,-0.007 0,-0.009 0.003,-0.002 0.007,-0.002 0.009,0 0.002,0.002 0.003,0.006 0,0.009z"/>
  <path class="fil0" d="M0.277 0.61c-0.003,0.002 -0.007,0.002 -0.009,0 -0.002,-0.003 -0.002,-0.007 0,-0.009 0.002,-0.003 0.006,-0.003 0.009,0 0.002,0.002 0.002,0.006 0,0.009z"/>
  <path class="fil0" d="M0.244 0.576c-0.003,0.003 -0.007,0.003 -0.009,0 -0.003,-0.002 -0.003,-0.006 0,-0.009 0.002,-0.002 0.006,-0.002 0.009,0.001 0.002,0.002 0.002,0.006 0,0.008z"/>
  <path class="fil0" d="M0.21 0.543c-0.002,0.002 -0.006,0.002 -0.009,0 -0.002,-0.002 -0.002,-0.006 0,-0.009 0.003,-0.002 0.007,-0.002 0.009,0 0.003,0.003 0.003,0.007 0,0.009z"/>
  <path class="fil0" d="M0.177 0.51c-0.002,0.002 -0.006,0.002 -0.009,0 -0.002,-0.003 -0.002,-0.007 0,-0.009 0.003,-0.002 0.007,-0.002 0.009,0 0.002,0.002 0.002,0.006 0,0.009z"/>
  <path class="fil0" d="M0.144 0.476c-0.003,0.003 -0.007,0.003 -0.009,0 -0.002,-0.002 -0.002,-0.006 0,-0.008 0.002,-0.003 0.006,-0.003 0.009,0 0.002,0.002 0.002,0.006 0,0.008z"/>
  <path class="fil0" d="M0.11 0.443c-0.002,0.003 -0.006,0.003 -0.008,0 -0.003,-0.002 -0.003,-0.006 0,-0.009 0.002,-0.002 0.006,-0.002 0.008,0 0.003,0.003 0.003,0.007 0,0.009z"/>
  <path class="fil0" d="M0.077 0.41c-0.002,0.002 -0.006,0.002 -0.009,0 -0.002,-0.003 -0.002,-0.006 0,-0.009 0.003,-0.002 0.007,-0.002 0.009,0 0.003,0.003 0.003,0.006 0,0.009z"/>
  <path class="fil0" d="M0.044 0.377c-0.003,0.002 -0.006,0.002 -0.009,0 -0.002,-0.003 -0.002,-0.007 0,-0.009 0.003,-0.003 0.006,-0.003 0.009,0 0.002,0.002 0.002,0.006 0,0.009z"/>
  <path class="fil0" d="M0.011 0.343c-0.003,0.003 -0.007,0.003 -0.009,0 -0.003,-0.002 -0.003,-0.006 0,-0.008 0.002,-0.003 0.006,-0.003 0.009,0 0.002,0.002 0.002,0.006 0,0.008z"/>
  <path class="fil0" d="M0.377 0.643c-0.003,0.002 -0.007,0.002 -0.009,0 -0.003,-0.003 -0.003,-0.007 0,-0.009 0.002,-0.002 0.006,-0.002 0.009,0 0.002,0.002 0.002,0.006 0,0.009z"/>
  <path class="fil0" d="M0.343 0.61c-0.002,0.002 -0.006,0.002 -0.008,0 -0.003,-0.003 -0.003,-0.007 0,-0.009 0.002,-0.003 0.006,-0.003 0.008,0 0.003,0.002 0.003,0.006 0,0.009z"/>
  <path class="fil0" d="M0.31 0.576c-0.002,0.003 -0.006,0.003 -0.009,0 -0.002,-0.002 -0.002,-0.006 0,-0.009 0.003,-0.002 0.007,-0.002 0.009,0.001 0.002,0.002 0.003,0.006 0,0.008z"/>
  <path class="fil0" d="M0.277 0.543c-0.003,0.002 -0.007,0.002 -0.009,0 -0.002,-0.002 -0.002,-0.006 0,-0.009 0.002,-0.002 0.006,-0.002 0.009,0 0.002,0.003 0.002,0.007 0,0.009z"/>
  <path class="fil0" d="M0.244 0.51c-0.003,0.002 -0.007,0.002 -0.009,0 -0.003,-0.003 -0.003,-0.007 0,-0.009 0.002,-0.002 0.006,-0.002 0.009,0 0.002,0.002 0.002,0.006 0,0.009z"/>
  <path class="fil0" d="M0.21 0.476c-0.002,0.003 -0.006,0.003 -0.009,0 -0.002,-0.002 -0.002,-0.006 0,-0.008 0.003,-0.003 0.007,-0.003 0.009,0 0.003,0.002 0.003,0.006 0,0.008z"/>
  <path class="fil0" d="M0.177 0.443c-0.002,0.003 -0.006,0.003 -0.009,0 -0.002,-0.002 -0.002,-0.006 0,-0.009 0.003,-0.002 0.007,-0.002 0.009,0 0.002,0.003 0.002,0.007 0,0.009z"/>
  <path class="fil0" d="M0.144 0.41c-0.003,0.002 -0.007,0.002 -0.009,0 -0.002,-0.003 -0.002,-0.006 0,-0.009 0.002,-0.002 0.006,-0.002 0.009,0 0.002,0.003 0.002,0.006 0,0.009z"/>
  <path class="fil0" d="M0.11 0.377c-0.002,0.002 -0.006,0.002 -0.008,0 -0.003,-0.003 -0.003,-0.007 0,-0.009 0.002,-0.003 0.006,-0.003 0.008,0 0.003,0.002 0.003,0.006 0,0.009z"/>
  <path class="fil0" d="M0.077 0.343c-0.002,0.003 -0.006,0.003 -0.009,0 -0.002,-0.002 -0.002,-0.006 0,-0.008 0.003,-0.003 0.007,-0.003 0.009,0 0.003,0.002 0.003,0.006 0,0.008z"/>
  <path class="fil0" d="M0.044 0.31c-0.003,0.002 -0.006,0.002 -0.009,0 -0.002,-0.002 -0.002,-0.006 0,-0.009 0.002,-0.002 0.006,-0.002 0.009,0 0.002,0.003 0.002,0.007 0,0.009z"/>
  <path class="fil0" d="M0.011 0.277c-0.003,0.002 -0.007,0.002 -0.009,0 -0.003,-0.003 -0.003,-0.007 0,-0.009 0.002,-0.002 0.006,-0.002 0.009,0 0.002,0.002 0.002,0.006 0,0.009z"/>
  <path class="fil0" d="M0.443 0.643c-0.002,0.002 -0.006,0.002 -0.009,0 -0.002,-0.003 -0.002,-0.007 0,-0.009 0.003,-0.002 0.007,-0.002 0.009,0 0.003,0.002 0.003,0.006 0,0.009z"/>
  <path class="fil0" d="M0.41 0.61c-0.002,0.002 -0.006,0.002 -0.009,0 -0.002,-0.003 -0.002,-0.007 0,-0.009 0.003,-0.003 0.006,-0.003 0.009,0 0.002,0.002 0.002,0.006 0,0.009z"/>
  <path class="fil0" d="M0.377 0.576c-0.003,0.003 -0.007,0.003 -0.009,0 -0.003,-0.002 -0.003,-0.006 0,-0.009 0.002,-0.002 0.006,-0.002 0.009,0.001 0.002,0.002 0.002,0.006 0,0.008z"/>
  <path class="fil0" d="M0.343 0.543c-0.002,0.002 -0.006,0.002 -0.008,0 -0.003,-0.002 -0.003,-0.006 0,-0.009 0.002,-0.002 0.006,-0.002 0.008,0 0.003,0.003 0.003,0.007 0,0.009z"/>
  <path class="fil0" d="M0.31 0.51c-0.002,0.002 -0.006,0.002 -0.009,0 -0.002,-0.003 -0.002,-0.007 0,-0.009 0.003,-0.002 0.007,-0.002 0.009,0 0.002,0.002 0.003,0.006 0,0.009z"/>
  <path class="fil0" d="M0.277 0.476c-0.003,0.003 -0.007,0.003 -0.009,0 -0.002,-0.002 -0.002,-0.006 0,-0.008 0.002,-0.003 0.006,-0.003 0.009,0 0.002,0.002 0.002,0.006 0,0.008z"/>
  <path class="fil0" d="M0.244 0.443c-0.003,0.003 -0.007,0.003 -0.009,0 -0.003,-0.002 -0.003,-0.006 0,-0.009 0.002,-0.002 0.006,-0.002 0.009,0 0.002,0.003 0.002,0.007 0,0.009z"/>
  <path class="fil0" d="M0.21 0.41c-0.002,0.002 -0.006,0.002 -0.009,0 -0.002,-0.003 -0.002,-0.006 0,-0.009 0.003,-0.002 0.007,-0.002 0.009,0 0.003,0.003 0.003,0.006 0,0.009z"/>
  <path class="fil0" d="M0.177 0.377c-0.002,0.002 -0.006,0.002 -0.009,0 -0.002,-0.003 -0.002,-0.007 0,-0.009 0.003,-0.003 0.007,-0.003 0.009,0 0.002,0.002 0.002,0.006 0,0.009z"/>
  <path class="fil0" d="M0.144 0.343c-0.003,0.003 -0.007,0.003 -0.009,0 -0.002,-0.002 -0.002,-0.006 0,-0.008 0.002,-0.003 0.006,-0.003 0.009,0 0.002,0.002 0.002,0.006 0,0.008z"/>
  <path class="fil0" d="M0.11 0.31c-0.002,0.002 -0.006,0.002 -0.008,0 -0.003,-0.002 -0.003,-0.006 0,-0.009 0.002,-0.002 0.006,-0.002 0.008,0 0.003,0.003 0.003,0.007 0,0.009z"/>
  <path class="fil0" d="M0.077 0.277c-0.002,0.002 -0.006,0.002 -0.009,0 -0.002,-0.003 -0.002,-0.007 0,-0.009 0.003,-0.002 0.007,-0.002 0.009,0 0.003,0.002 0.003,0.006 0,0.009z"/>
  <path class="fil0" d="M0.044 0.244c-0.003,0.002 -0.006,0.002 -0.009,-0.001 -0.002,-0.002 -0.002,-0.006 0,-0.008 0.002,-0.003 0.006,-0.003 0.009,0 0.002,0.002 0.002,0.006 0,0.009z"/>
  <path class="fil0" d="M0.011 0.21c-0.003,0.003 -0.007,0.003 -0.009,0 -0.003,-0.002 -0.003,-0.006 0,-0.009 0.002,-0.002 0.006,-0.002 0.009,0 0.002,0.003 0.002,0.007 0,0.009z"/>
  <path class="fil0" d="M0.476 0.61c-0.002,0.002 -0.006,0.002 -0.008,0 -0.003,-0.003 -0.003,-0.007 0,-0.009 0.002,-0.003 0.006,-0.003 0.008,0 0.003,0.002 0.003,0.006 0,0.009z"/>
  <path class="fil0" d="M0.443 0.576c-0.002,0.003 -0.006,0.003 -0.009,0 -0.002,-0.002 -0.002,-0.006 0,-0.009 0.003,-0.002 0.007,-0.002 0.009,0.001 0.003,0.002 0.003,0.006 0,0.008z"/>
  <path class="fil0" d="M0.41 0.543c-0.002,0.002 -0.006,0.002 -0.009,0 -0.002,-0.002 -0.002,-0.006 0,-0.009 0.003,-0.002 0.006,-0.002 0.009,0 0.002,0.003 0.002,0.007 0,0.009z"/>
  <path class="fil0" d="M0.377 0.51c-0.003,0.002 -0.007,0.002 -0.009,0 -0.003,-0.003 -0.003,-0.007 0,-0.009 0.002,-0.002 0.006,-0.002 0.009,0 0.002,0.002 0.002,0.006 0,0.009z"/>
  <path class="fil0" d="M0.343 0.476c-0.002,0.003 -0.006,0.003 -0.008,0 -0.003,-0.002 -0.003,-0.006 0,-0.008 0.002,-0.003 0.006,-0.003 0.008,0 0.003,0.002 0.003,0.006 0,0.008z"/>
  <path class="fil0" d="M0.31 0.443c-0.002,0.003 -0.006,0.003 -0.009,0 -0.002,-0.002 -0.002,-0.006 0,-0.009 0.003,-0.002 0.007,-0.002 0.009,0 0.002,0.003 0.002,0.007 0,0.009z"/>
  <path class="fil0" d="M0.277 0.41c-0.003,0.002 -0.007,0.002 -0.009,0 -0.002,-0.003 -0.002,-0.006 0,-0.009 0.002,-0.002 0.006,-0.002 0.009,0 0.002,0.003 0.002,0.006 0,0.009z"/>
  <path class="fil0" d="M0.244 0.377c-0.003,0.002 -0.007,0.002 -0.009,0 -0.003,-0.003 -0.003,-0.007 0,-0.009 0.002,-0.003 0.006,-0.003 0.009,0 0.002,0.002 0.002,0.006 0,0.009z"/>
  <path class="fil0" d="M0.21 0.343c-0.002,0.003 -0.006,0.003 -0.009,0 -0.002,-0.002 -0.002,-0.006 0,-0.008 0.003,-0.003 0.007,-0.003 0.009,0 0.003,0.002 0.003,0.006 0,0.008z"/>
  <path class="fil0" d="M0.177 0.31c-0.002,0.002 -0.006,0.002 -0.009,0 -0.002,-0.002 -0.002,-0.006 0,-0.009 0.003,-0.002 0.007,-0.002 0.009,0 0.002,0.003 0.002,0.007 0,0.009z"/>
  <path class="fil0" d="M0.144 0.277c-0.003,0.002 -0.007,0.002 -0.009,0 -0.002,-0.003 -0.003,-0.007 0,-0.009 0.002,-0.002 0.006,-0.002 0.009,0 0.002,0.002 0.002,0.006 0,0.009z"/>
  <path class="fil0" d="M0.11 0.244c-0.002,0.002 -0.006,0.002 -0.008,-0.001 -0.003,-0.002 -0.003,-0.006 0,-0.008 0.002,-0.003 0.006,-0.003 0.008,0 0.003,0.002 0.003,0.006 0,0.009z"/>
  <path class="fil0" d="M0.077 0.21c-0.002,0.003 -0.006,0.003 -0.009,0 -0.002,-0.002 -0.002,-0.006 0,-0.009 0.003,-0.002 0.007,-0.002 0.009,0 0.003,0.003 0.003,0.007 0,0.009z"/>
  <path class="fil0" d="M0.044 0.177c-0.003,0.002 -0.006,0.002 -0.009,0 -0.002,-0.002 -0.002,-0.006 0,-0.009 0.002,-0.002 0.006,-0.002 0.009,0 0.002,0.003 0.002,0.007 0,0.009z"/>
  <path class="fil0" d="M0.011 0.144c-0.003,0.002 -0.007,0.002 -0.009,0 -0.003,-0.003 -0.003,-0.007 0,-0.009 0.002,-0.003 0.006,-0.002 0.009,0 0.002,0.002 0.002,0.006 0,0.009z"/>
  <path class="fil0" d="M0.51 0.576c-0.003,0.003 -0.007,0.003 -0.009,0 -0.002,-0.002 -0.002,-0.006 0,-0.009 0.002,-0.002 0.006,-0.002 0.009,0.001 0.002,0.002 0.002,0.006 0,0.008z"/>
  <path class="fil0" d="M0.476 0.543c-0.002,0.002 -0.006,0.002 -0.008,0 -0.003,-0.002 -0.003,-0.006 0,-0.009 0.002,-0.002 0.006,-0.002 0.008,0 0.003,0.003 0.003,0.007 0,0.009z"/>
  <path class="fil0" d="M0.443 0.51c-0.002,0.002 -0.006,0.002 -0.009,0 -0.002,-0.003 -0.002,-0.007 0,-0.009 0.003,-0.002 0.007,-0.002 0.009,0 0.003,0.002 0.003,0.006 0,0.009z"/>
  <path class="fil0" d="M0.41 0.476c-0.003,0.003 -0.006,0.003 -0.009,0 -0.002,-0.002 -0.002,-0.006 0,-0.008 0.003,-0.003 0.006,-0.003 0.009,0 0.002,0.002 0.002,0.006 0,0.008z"/>
  <path class="fil0" d="M0.377 0.443c-0.003,0.003 -0.007,0.003 -0.009,0 -0.003,-0.002 -0.003,-0.006 0,-0.009 0.002,-0.002 0.006,-0.002 0.009,0 0.002,0.003 0.002,0.007 0,0.009z"/>
  <path class="fil0" d="M0.343 0.41c-0.002,0.002 -0.006,0.002 -0.008,0 -0.003,-0.003 -0.003,-0.006 0,-0.009 0.002,-0.002 0.006,-0.002 0.008,0 0.003,0.003 0.003,0.006 0,0.009z"/>
  <path class="fil0" d="M0.31 0.377c-0.002,0.002 -0.006,0.002 -0.009,0 -0.002,-0.003 -0.002,-0.007 0,-0.009 0.003,-0.003 0.007,-0.003 0.009,0 0.002,0.002 0.002,0.006 0,0.009z"/>
  <path class="fil0" d="M0.277 0.343c-0.003,0.003 -0.007,0.003 -0.009,0 -0.002,-0.002 -0.002,-0.006 0,-0.008 0.002,-0.003 0.006,-0.003 0.009,0 0.002,0.002 0.002,0.006 0,0.008z"/>
  <path class="fil0" d="M0.244 0.31c-0.003,0.002 -0.007,0.002 -0.009,0 -0.003,-0.002 -0.003,-0.006 0,-0.009 0.002,-0.002 0.006,-0.002 0.009,0 0.002,0.003 0.002,0.007 0,0.009z"/>
  <path class="fil0" d="M0.21 0.277c-0.002,0.002 -0.006,0.002 -0.009,0 -0.002,-0.003 -0.002,-0.007 0,-0.009 0.003,-0.002 0.007,-0.002 0.009,0 0.003,0.002 0.003,0.006 0,0.009z"/>
  <path class="fil0" d="M0.177 0.244c-0.002,0.002 -0.006,0.002 -0.009,-0.001 -0.002,-0.002 -0.002,-0.006 0,-0.008 0.003,-0.003 0.007,-0.003 0.009,0 0.002,0.002 0.002,0.006 0,0.009z"/>
  <path class="fil0" d="M0.144 0.21c-0.003,0.003 -0.007,0.003 -0.009,0 -0.002,-0.002 -0.003,-0.006 0,-0.009 0.002,-0.002 0.006,-0.002 0.009,0 0.002,0.003 0.002,0.007 0,0.009z"/>
  <path class="fil0" d="M0.11 0.177c-0.002,0.002 -0.006,0.002 -0.008,0 -0.003,-0.002 -0.003,-0.006 0,-0.009 0.002,-0.002 0.006,-0.002 0.008,0 0.003,0.003 0.003,0.007 0,0.009z"/>
  <path class="fil0" d="M0.077 0.144c-0.002,0.002 -0.006,0.002 -0.009,0 -0.002,-0.003 -0.002,-0.007 0,-0.009 0.003,-0.003 0.007,-0.002 0.009,0 0.003,0.002 0.003,0.006 0,0.009z"/>
  <path class="fil0" d="M0.044 0.11c-0.003,0.003 -0.006,0.003 -0.009,0 -0.002,-0.002 -0.002,-0.006 0,-0.008 0.002,-0.003 0.006,-0.003 0.009,0 0.002,0.002 0.002,0.006 0,0.008z"/>
  <path class="fil0" d="M0.011 0.077c-0.003,0.003 -0.007,0.003 -0.009,0 -0.003,-0.002 -0.003,-0.006 0,-0.009 0.002,-0.002 0.006,-0.002 0.009,0 0.002,0.003 0.002,0.007 0,0.009z"/>
  <path class="fil0" d="M0.543 0.543c-0.002,0.002 -0.006,0.002 -0.009,0 -0.002,-0.002 -0.002,-0.006 0,-0.009 0.003,-0.002 0.007,-0.002 0.009,0 0.002,0.003 0.002,0.007 0,0.009z"/>
  <path class="fil0" d="M0.51 0.51c-0.003,0.002 -0.007,0.002 -0.009,0 -0.002,-0.003 -0.002,-0.007 0,-0.009 0.002,-0.002 0.006,-0.002 0.009,0 0.002,0.002 0.002,0.006 0,0.009z"/>
  <path class="fil0" d="M0.476 0.476c-0.002,0.003 -0.006,0.003 -0.008,0 -0.003,-0.002 -0.003,-0.006 0,-0.008 0.002,-0.003 0.006,-0.003 0.008,0 0.003,0.002 0.003,0.006 0,0.008z"/>
  <path class="fil0" d="M0.443 0.443c-0.002,0.003 -0.006,0.003 -0.009,0 -0.002,-0.002 -0.002,-0.006 0,-0.009 0.003,-0.002 0.007,-0.002 0.009,0 0.003,0.003 0.003,0.007 0,0.009z"/>
  <path class="fil0" d="M0.41 0.41c-0.003,0.002 -0.006,0.002 -0.009,0 -0.002,-0.003 -0.002,-0.006 0,-0.009 0.003,-0.002 0.006,-0.002 0.009,0 0.002,0.003 0.002,0.006 0,0.009z"/>
  <path class="fil0" d="M0.377 0.377c-0.003,0.002 -0.007,0.002 -0.009,0 -0.003,-0.003 -0.003,-0.007 0,-0.009 0.002,-0.003 0.006,-0.003 0.009,0 0.002,0.002 0.002,0.006 0,0.009z"/>
  <path class="fil0" d="M0.343 0.343c-0.002,0.003 -0.006,0.003 -0.008,0 -0.003,-0.002 -0.003,-0.006 0,-0.008 0.002,-0.003 0.006,-0.003 0.008,0 0.003,0.002 0.003,0.006 0,0.008z"/>
  <path class="fil0" d="M0.31 0.31c-0.002,0.002 -0.006,0.002 -0.009,0 -0.002,-0.002 -0.002,-0.006 0,-0.009 0.003,-0.002 0.007,-0.002 0.009,0 0.002,0.003 0.002,0.007 0,0.009z"/>
  <path class="fil0" d="M0.277 0.277c-0.003,0.002 -0.007,0.002 -0.009,0 -0.002,-0.003 -0.002,-0.007 0,-0.009 0.002,-0.002 0.006,-0.002 0.009,0 0.002,0.002 0.002,0.006 0,0.009z"/>
  <path class="fil0" d="M0.244 0.244c-0.003,0.002 -0.007,0.002 -0.009,0 -0.003,-0.003 -0.003,-0.007 0,-0.009 0.002,-0.003 0.006,-0.003 0.008,0 0.003,0.002 0.003,0.006 0.001,0.009z"/>
  <path class="fil0" d="M0.21 0.21c-0.002,0.003 -0.006,0.003 -0.009,0 -0.002,-0.002 -0.002,-0.006 0,-0.009 0.003,-0.002 0.007,-0.002 0.009,0 0.003,0.003 0.003,0.007 0,0.009z"/>
  <path class="fil0" d="M0.177 0.177c-0.002,0.002 -0.006,0.002 -0.009,0 -0.002,-0.002 -0.002,-0.006 0,-0.009 0.003,-0.002 0.007,-0.002 0.009,0 0.002,0.003 0.002,0.007 0,0.009z"/>
  <path class="fil0" d="M0.144 0.144c-0.003,0.002 -0.007,0.002 -0.009,0 -0.002,-0.003 -0.003,-0.007 0,-0.009 0.002,-0.003 0.006,-0.002 0.009,0 0.002,0.002 0.002,0.006 0,0.009z"/>
  <path class="fil0" d="M0.11 0.11c-0.002,0.003 -0.006,0.003 -0.008,0 -0.003,-0.002 -0.003,-0.006 0,-0.008 0.002,-0.003 0.006,-0.003 0.008,0 0.003,0.002 0.003,0.006 0,0.008z"/>
  <path class="fil0" d="M0.077 0.077c-0.002,0.003 -0.006,0.003 -0.009,0 -0.002,-0.002 -0.002,-0.006 0,-0.009 0.003,-0.002 0.007,-0.002 0.009,0 0.003,0.003 0.003,0.007 0,0.009z"/>
  <path class="fil0" d="M0.044 0.044c-0.003,0.002 -0.006,0.002 -0.009,0 -0.002,-0.003 -0.002,-0.007 0,-0.009 0.002,-0.002 0.006,-0.002 0.009,0 0.002,0.003 0.002,0.006 0,0.009z"/>
  <path class="fil0" d="M0.011 0.011c-0.003,0.002 -0.007,0.002 -0.009,0 -0.003,-0.003 -0.003,-0.007 0,-0.009 0.002,-0.003 0.006,-0.003 0.009,0 0.002,0.002 0.002,0.006 0,0.009z"/>
  <path class="fil0" d="M0.51 0.643c-0.003,0.002 -0.007,0.002 -0.009,0 -0.002,-0.003 -0.002,-0.007 0,-0.009 0.002,-0.002 0.006,-0.002 0.009,0 0.002,0.002 0.002,0.006 0,0.009z"/>
  <path class="fil0" d="M0.576 0.643c-0.002,0.002 -0.006,0.002 -0.008,0 -0.003,-0.003 -0.003,-0.007 -0.001,-0.009 0.003,-0.002 0.007,-0.002 0.009,0 0.003,0.002 0.003,0.006 0,0.009z"/>
  <path class="fil0" d="M0.543 0.61c-0.002,0.002 -0.006,0.002 -0.009,0 -0.002,-0.003 -0.002,-0.007 0,-0.009 0.003,-0.003 0.007,-0.003 0.009,0 0.002,0.002 0.002,0.006 0,0.009z"/>
  <path class="fil0" d="M0.643 0.643c-0.003,0.002 -0.006,0.002 -0.009,0 -0.002,-0.003 -0.002,-0.007 0,-0.009 0.002,-0.002 0.006,-0.002 0.009,0 0.002,0.002 0.002,0.006 0,0.009z"/>
  <path class="fil0" d="M0.61 0.61c-0.003,0.002 -0.007,0.002 -0.009,0 -0.003,-0.003 -0.003,-0.007 0,-0.009 0.002,-0.003 0.006,-0.003 0.009,0 0.002,0.002 0.002,0.006 0,0.009z"/>
  <path class="fil0" d="M0.576 0.576c-0.002,0.003 -0.006,0.003 -0.008,0 -0.003,-0.002 -0.003,-0.006 -0.001,-0.009 0.003,-0.002 0.007,-0.002 0.009,0.001 0.003,0.002 0.003,0.006 0,0.008z"/>
 </g>
</svg>
